<svg width="13" height="9" viewBox="0 0 13 9" fill="none" xmlns="http://www.w3.org/2000/svg">
<path d="M1.0119 5.02809L4.0119 8.02809C4.1639 8.18009 4.3419 8.25409 4.5459 8.25009C4.7499 8.24609 4.9259 8.17209 5.0739 8.02809C5.2219 7.88409 5.2959 7.70809 5.2959 7.50009C5.2959 7.29209 5.2239 7.11609 5.0799 6.97209L3.3519 5.24409H12.0399C12.2479 5.24409 12.4259 5.17009 12.5739 5.02209C12.7219 4.87409 12.7959 4.69209 12.7959 4.47609C12.7959 4.26009 12.7239 4.08409 12.5799 3.94809C12.4359 3.81209 12.2559 3.74409 12.0399 3.74409H3.3519L5.0799 2.02809C5.2239 1.88409 5.2959 1.70809 5.2959 1.50009C5.2959 1.29209 5.2239 1.11609 5.0799 0.97209C4.9359 0.82809 4.7599 0.75409 4.5519 0.75009C4.3439 0.74609 4.1639 0.82009 4.0119 0.97209L1.0119 3.97209C0.867898 4.11609 0.795898 4.29209 0.795898 4.50009C0.795898 4.70809 0.867898 4.88409 1.0119 5.02809Z" fill="#16110C"/>
</svg>
