<svg width="43" height="42" fill="none" xmlns="http://www.w3.org/2000/svg"><rect x=".33" width="42" height="42" rx="12" fill="#D1DFA3" fill-opacity=".4"/><path d="M17.4 26.4c-.99 0-1.8.81-1.8 1.8s.81 1.8 1.8 1.8 1.8-.81 1.8-1.8-.81-1.8-1.8-1.8zM12 12v1.8h1.8l3.24 6.84-1.26 2.16c-.09.27-.18.63-.18.9 0 .99.81 1.8 1.8 1.8h10.8v-1.8H17.76c-.09 0-.18-.09-.18-.18v-.09l.81-1.53h6.66c.72 0 1.26-.36 1.53-.9l3.24-5.85c.18-.18.18-.27.18-.45 0-.54-.36-.9-.9-.9H15.78l-.81-1.8H12zm14.4 14.4c-.99 0-1.8.81-1.8 1.8s.81 1.8 1.8 1.8 1.8-.81 1.8-1.8-.81-1.8-1.8-1.8z" fill="#8B9F57"/></svg>