<svg width="16" height="15" fill="none" xmlns="http://www.w3.org/2000/svg"><g clip-path="url(#clip0_196_4819)"><path d="M5.38 12c-.825 0-1.5.675-1.5 1.5s.675 1.5 1.5 1.5 1.5-.675 1.5-1.5-.675-1.5-1.5-1.5zM.88 0v1.5h1.5l2.7 5.7L4.03 9c-.075.225-.15.525-.15.75 0 .825.675 1.5 1.5 1.5h9v-1.5h-8.7a.161.161 0 01-.15-.15v-.075l.675-1.275h5.55c.6 0 1.05-.3 1.275-.75l2.7-4.875c.15-.15.15-.225.15-.375 0-.45-.3-.75-.75-.75H4.03L3.355 0H.88zm12 12c-.825 0-1.5.675-1.5 1.5s.675 1.5 1.5 1.5 1.5-.675 1.5-1.5-.675-1.5-1.5-1.5z" fill="#16110C"/></g><defs><clipPath id="clip0_196_4819"><path fill="#fff" transform="translate(.88)" d="M0 0h15v15H0z"/></clipPath></defs></svg>