<svg width="15" height="15" fill="none" xmlns="http://www.w3.org/2000/svg"><g clip-path="url(#clip0_749_15813)" fill-rule="evenodd" clip-rule="evenodd"><path d="M7.5 0A7.507 7.507 0 000 7.5C0 11.637 3.363 15 7.5 15c4.137 0 7.5-3.363 7.5-7.5C15 3.363 11.637 0 7.5 0z" fill="#8B9F57"/><path d="M11.128 4.972a.47.47 0 010 .662l-4.394 4.394a.468.468 0 01-.662 0L3.875 7.831a.47.47 0 010-.662.47.47 0 01.662 0l1.866 1.866 4.063-4.063a.465.465 0 01.662 0z" fill="#fff"/></g><defs><clipPath id="clip0_749_15813"><path fill="#fff" d="M0 0h15v15H0z"/></clipPath></defs></svg>