<svg xmlns="http://www.w3.org/2000/svg" width="17.525" height="15.132"><g data-name="Сгруппировать 177"><path data-name="Контур 131" d="M8.629 4.791L11.138 7.3l.012-.131A2.391 2.391 0 008.761 4.78z" fill="#d3caff"/><path data-name="Контур 132" d="M8.761 3.186a3.984 3.984 0 013.982 3.982 3.921 3.921 0 01-.283 1.453l2.33 2.33a9.459 9.459 0 002.736-3.783 9.425 9.425 0 00-8.765-5.973 9.314 9.314 0 00-3.174.557l1.72 1.716a4 4 0 011.454-.282z" fill="#B8B7B7"/><path data-name="Контур 133" d="M.8 1.015l1.816 1.816.362.362A9.433 9.433 0 000 7.168a9.408 9.408 0 0012.253 5.3l.338.338 2.322 2.326 1.015-1.011L1.812 0zm4.4 4.4l1.23 1.23a2.524 2.524 0 00-.06.522 2.391 2.391 0 002.391 2.39 2.455 2.455 0 00.518-.06l1.23 1.23a3.918 3.918 0 01-1.748.422A3.956 3.956 0 015.2 5.416z" fill="#B8B7B7"/></g></svg>