<svg width="15" height="13" fill="none" xmlns="http://www.w3.org/2000/svg"><path d="M7.5 12.973a.439.439 0 01-.22-.059 26.243 26.243 0 01-3.607-2.595c-1.054-.91-1.896-1.812-2.502-2.681C.388 6.512-.006 5.43.001 4.42c.007-1.175.427-2.28 1.184-3.11C1.954.465 2.98 0 4.075 0 5.48 0 6.762.786 7.5 2.031 8.238.786 9.521 0 10.925 0c1.034 0 2.02.42 2.779 1.182.831.837 1.304 2.02 1.296 3.244-.007 1.008-.408 2.089-1.193 3.212-.608.87-1.448 1.77-2.499 2.68a26.332 26.332 0 01-3.587 2.596.44.44 0 01-.221.059z" fill="#8B9F57"/></svg>