<svg width="15" height="14" fill="none" xmlns="http://www.w3.org/2000/svg"><path d="M7.5 13.345a.88.88 0 01-.58-.218c-.606-.53-1.19-1.027-1.706-1.467l-.002-.002C3.7 10.37 2.396 9.258 1.488 8.162.473 6.938 0 5.777 0 4.508c0-1.233.423-2.37 1.19-3.202A4.034 4.034 0 014.19 0c.866 0 1.66.274 2.357.814.352.272.672.606.953.994.281-.388.6-.722.953-.994A3.773 3.773 0 0110.81 0c1.158 0 2.224.464 3 1.306.768.832 1.19 1.97 1.19 3.202 0 1.268-.473 2.43-1.488 3.654-.908 1.096-2.213 2.208-3.723 3.496-.517.44-1.102.938-1.71 1.47a.88.88 0 01-.579.217zM4.19.88c-.91 0-1.746.363-2.354 1.023-.617.67-.957 1.595-.957 2.606 0 1.067.396 2.021 1.285 3.094.86 1.037 2.138 2.126 3.618 3.387l.002.003c.518.44 1.104.94 1.715 1.474.614-.535 1.201-1.035 1.72-1.477 1.48-1.261 2.758-2.35 3.617-3.387.889-1.073 1.285-2.027 1.285-3.094 0-1.011-.34-1.937-.957-2.606A3.164 3.164 0 0010.81.879c-.667 0-1.28.212-1.82.63a4.265 4.265 0 00-1.014 1.173.55.55 0 01-.476.27.55.55 0 01-.476-.27A4.26 4.26 0 006.01 1.509a2.914 2.914 0 00-1.82-.63z" fill="#16110C"/></svg>