<svg width="85" height="24" fill="none" xmlns="http://www.w3.org/2000/svg"><path d="M.406 23V1.182H6.33v17.045h8.82V23H.407zm37.426-10.91c0 2.43-.473 4.479-1.417 6.148-.945 1.662-2.22 2.922-3.825 3.782-1.605.852-3.395 1.278-5.37 1.278-1.988 0-3.785-.43-5.39-1.289-1.598-.866-2.87-2.13-3.814-3.792-.937-1.67-1.406-3.711-1.406-6.126 0-2.43.469-4.475 1.406-6.136.945-1.67 2.216-2.93 3.814-3.782 1.605-.86 3.402-1.29 5.39-1.29 1.975 0 3.765.43 5.37 1.29 1.605.852 2.88 2.113 3.825 3.782.944 1.661 1.417 3.707 1.417 6.136zm-6.094 0c0-1.306-.174-2.407-.522-3.302-.341-.902-.849-1.583-1.524-2.045-.667-.469-1.491-.703-2.471-.703s-1.808.234-2.482.703c-.668.462-1.176 1.143-1.524 2.045-.34.895-.511 1.996-.511 3.303s.17 2.411.511 3.313c.348.895.856 1.577 1.524 2.046.674.461 1.502.692 2.482.692.98 0 1.804-.23 2.471-.692.675-.47 1.183-1.151 1.524-2.046.348-.902.522-2.006.522-3.313zM54.74 8.385a2.922 2.922 0 00-.437-.991 2.722 2.722 0 00-.745-.735 3.059 3.059 0 00-1.023-.458 4.728 4.728 0 00-1.268-.16c-.994 0-1.843.238-2.546.714-.696.475-1.229 1.16-1.598 2.056-.362.895-.543 1.974-.543 3.238 0 1.279.174 2.373.522 3.281.348.91.866 1.606 1.555 2.089.69.483 1.545.724 2.568.724.902 0 1.651-.131 2.248-.394.603-.263 1.054-.636 1.353-1.119.298-.483.447-1.05.447-1.704l1.023.106H51.31v-4.219h9.673v3.026c0 1.989-.422 3.69-1.268 5.103a8.397 8.397 0 01-3.473 3.239c-1.47.745-3.157 1.118-5.06 1.118-2.123 0-3.988-.45-5.593-1.353-1.605-.902-2.859-2.187-3.76-3.856-.895-1.67-1.343-3.654-1.343-5.955 0-1.805.273-3.402.82-4.795.554-1.392 1.321-2.567 2.301-3.526a9.726 9.726 0 013.399-2.184c1.285-.497 2.663-.745 4.133-.745 1.293 0 2.493.184 3.601.553a9.368 9.368 0 012.951 1.556 8.079 8.079 0 012.078 2.376c.525.916.845 1.92.958 3.015H54.74zm30.141 3.707c0 2.429-.472 4.478-1.416 6.147-.945 1.662-2.22 2.922-3.825 3.782-1.605.852-3.395 1.278-5.37 1.278-1.988 0-3.785-.43-5.39-1.289-1.598-.866-2.87-2.13-3.814-3.792-.937-1.67-1.406-3.711-1.406-6.126 0-2.43.469-4.475 1.406-6.136.945-1.67 2.216-2.93 3.814-3.782 1.605-.86 3.402-1.29 5.39-1.29 1.975 0 3.765.43 5.37 1.29 1.605.852 2.88 2.113 3.825 3.782.944 1.661 1.416 3.707 1.416 6.136zm-6.093 0c0-1.307-.174-2.408-.522-3.303-.341-.902-.849-1.583-1.524-2.045-.667-.469-1.491-.703-2.471-.703s-1.808.234-2.483.703c-.667.462-1.175 1.143-1.523 2.045-.34.895-.511 1.996-.511 3.303s.17 2.411.511 3.313c.348.895.856 1.577 1.523 2.046.675.461 1.502.692 2.483.692.98 0 1.804-.23 2.471-.692.675-.47 1.183-1.151 1.524-2.046.348-.902.522-2.006.522-3.313z" fill="#fff"/></svg>