<svg width="20" height="20" fill="none" xmlns="http://www.w3.org/2000/svg"><g clip-path="url(#clip0_535_11561)" fill="#16110C"><path d="M11.671 12.254a3.004 3.004 0 01-3.342 0L.133 6.79A2.981 2.981 0 010 6.695v8.953a1.84 1.84 0 001.841 1.842H18.16A1.84 1.84 0 0020 15.648V6.695a2.913 2.913 0 01-.134.095l-8.195 5.464z"/><path d="M.783 5.815l8.196 5.464a1.839 1.839 0 002.042 0l8.196-5.464c.49-.327.783-.874.783-1.464 0-1.015-.826-1.84-1.84-1.84H1.84A1.841 1.841 0 000 4.35a1.754 1.754 0 00.783 1.464z"/></g><defs><clipPath id="clip0_535_11561"><path fill="#fff" d="M0 0h20v20H0z"/></clipPath></defs></svg>