<svg width="16" height="15" fill="none" xmlns="http://www.w3.org/2000/svg"><g clip-path="url(#clip0_219_11535)" fill="#fff"><path d="M9.504 9.19a2.253 2.253 0 01-2.508 0L.85 5.092a2.222 2.222 0 01-.1-.07v6.714c0 .77.625 1.381 1.38 1.381h12.24a1.38 1.38 0 001.38-1.38V5.02a2.212 2.212 0 01-.1.071L9.504 9.19z"/><path d="M1.337 4.361L7.484 8.46a1.379 1.379 0 001.532 0l6.147-4.098c.367-.245.587-.655.587-1.098 0-.761-.62-1.38-1.38-1.38H2.13c-.76 0-1.38.62-1.38 1.38a1.316 1.316 0 00.587 1.098z"/></g><defs><clipPath id="clip0_219_11535"><path fill="#fff" transform="translate(.75)" d="M0 0h15v15H0z"/></clipPath></defs></svg>