<svg width="15" height="16" fill="none" xmlns="http://www.w3.org/2000/svg"><g clip-path="url(#clip0_196_4788)"><path d="M14.592 11.508l-2.094-2.093c-.747-.747-2.018-.448-2.317.524-.224.672-.972 1.046-1.645.897-1.495-.374-3.514-2.318-3.887-3.888-.225-.673.224-1.42.897-1.645.972-.299 1.27-1.57.523-2.317L3.976.892C3.378.37 2.48.37 1.957.892l-1.42 1.42C-.883 3.809.687 7.77 4.2 11.285c3.514 3.514 7.476 5.159 8.971 3.663l1.42-1.42c.524-.598.524-1.495 0-2.018z" fill="#16110C"/></g><defs><clipPath id="clip0_196_4788"><path fill="#fff" transform="translate(0 .5)" d="M0 0h15v15H0z"/></clipPath></defs></svg>