<svg width="16" height="15" fill="none" xmlns="http://www.w3.org/2000/svg"><g clip-path="url(#clip0_219_11530)"><path d="M15.342 11.008l-2.094-2.093c-.747-.747-2.018-.448-2.317.524-.224.672-.972 1.046-1.645.897C7.791 9.962 5.772 8.018 5.4 6.448c-.225-.673.224-1.42.897-1.645.972-.299 1.27-1.57.523-2.317L4.726.392C4.128-.13 3.23-.13 2.707.392l-1.42 1.42c-1.42 1.496.15 5.458 3.663 8.972 3.514 3.514 7.476 5.159 8.971 3.663l1.42-1.42c.524-.598.524-1.495 0-2.018z" fill="#fff"/></g><defs><clipPath id="clip0_219_11530"><path fill="#fff" transform="translate(.75)" d="M0 0h15v15H0z"/></clipPath></defs></svg>