<svg width="20" height="20" fill="none" xmlns="http://www.w3.org/2000/svg"><path d="M9.828 12.5c1.357 0 2.458-1.12 2.458-2.5s-1.1-2.5-2.458-2.5c-1.357 0-2.457 1.12-2.457 2.5s1.1 2.5 2.457 2.5z" fill="#8B9F57"/><path d="M16.384 3.333h-2.596l-1.016-1.125a1.63 1.63 0 00-1.204-.541H8.095c-.459 0-.901.2-1.212.541L5.875 3.333H3.28c-.901 0-1.638.75-1.638 1.667v10c0 .917.737 1.667 1.638 1.667h13.105c.901 0 1.638-.75 1.638-1.667V5c0-.917-.737-1.667-1.638-1.667zM9.832 14.167C7.57 14.167 5.736 12.3 5.736 10s1.835-4.167 4.096-4.167c2.26 0 4.095 1.867 4.095 4.167s-1.835 4.167-4.095 4.167z" fill="#8B9F57"/></svg>