<svg width="21" height="20" fill="none" xmlns="http://www.w3.org/2000/svg"><path d="M15.13 8.543a4.877 4.877 0 00-4.87-4.871 4.877 4.877 0 00-4.871 4.871 4.877 4.877 0 004.87 4.871 4.877 4.877 0 004.872-4.871zm-4.87 4.242A4.25 4.25 0 016.014 8.54a4.247 4.247 0 014.246-4.242 4.25 4.25 0 014.246 4.246 4.247 4.247 0 01-4.246 4.242z" fill="#000"/><path d="M16.229 13.582c.175-.09.332-.207.453-.371.316-.434.242-1 .172-1.55-.047-.356-.094-.727-.012-.977.074-.235.324-.496.562-.746.371-.391.79-.833.79-1.391 0-.559-.415-1.008-.786-1.399-.238-.253-.488-.511-.562-.746-.082-.25-.035-.62.011-.976.07-.551.141-1.117-.171-1.551-.317-.438-.883-.543-1.43-.648-.352-.067-.715-.133-.922-.286-.207-.148-.379-.468-.547-.78-.254-.47-.547-1-1.066-1.173-.5-.164-1.012.078-1.508.313-.332.156-.672.316-.945.316-.274 0-.614-.16-.946-.316-.496-.235-1.008-.477-1.508-.313-.523.168-.796.68-1.066 1.172-.168.309-.344.633-.547.781-.21.153-.57.223-.922.286-.547.101-1.113.21-1.43.648-.316.434-.242 1-.171 1.55.047.356.093.727.011.977-.074.235-.324.496-.562.746-.371.391-.79.832-.79 1.391s.423 1 .79 1.39c.238.255.488.512.562.747.082.25.036.62-.011.976-.07.551-.14 1.118.172 1.551.12.164.277.285.453.371L2.6 16.524a.314.314 0 00.351.46l2.516-.675.676 2.515a.32.32 0 00.261.23c.016 0 .028.005.04.005a.31.31 0 00.269-.157l1.598-2.77c.34-.038.683-.198 1.015-.355.332-.156.672-.316.945-.316.274 0 .614.16.946.316.332.157.676.32 1.015.356l1.598 2.77a.31.31 0 00.27.156c.011 0 .027 0 .039-.004a.313.313 0 00.261-.23l.676-2.516 2.516.675a.314.314 0 00.351-.46l-1.715-2.942zm-9.692 4.36l-.558-2.09a.313.313 0 00-.383-.223l-2.09.559 1.39-2.41c.122.027.247.05.372.074.351.066.714.132.921.285.207.148.38.468.547.781.227.418.48.883.903 1.102l-1.102 1.92zm3.723-3.102c-.414 0-.82.191-1.211.375-.387.183-.785.37-1.047.285-.285-.094-.5-.492-.711-.875-.203-.371-.41-.754-.73-.988-.325-.235-.758-.317-1.176-.395-.426-.082-.867-.164-1.043-.398-.168-.23-.113-.676-.059-1.102.055-.426.11-.863-.015-1.25-.122-.367-.418-.683-.704-.984-.304-.32-.62-.653-.62-.961 0-.309.316-.64.62-.961.29-.305.586-.617.704-.984.125-.387.07-.825.015-1.25-.054-.43-.11-.872.059-1.102.172-.238.613-.32 1.043-.398.418-.079.851-.16 1.176-.395.32-.23.527-.617.73-.988.21-.387.426-.781.711-.875.266-.086.664.101 1.047.285.39.183.797.375 1.21.375.415 0 .821-.192 1.212-.375.386-.184.785-.371 1.047-.285.285.093.5.492.71.875.204.37.41.754.731.988.324.234.758.316 1.176.395.425.082.867.164 1.043.398.168.23.113.676.058 1.102-.054.425-.109.863.016 1.25.121.367.418.683.703.984.305.32.621.652.621.96 0 .31-.316.642-.62.962-.29.305-.587.617-.704.984-.125.387-.07.824-.016 1.25.055.43.11.871-.058 1.102-.172.238-.614.32-1.043.398-.418.078-.852.16-1.176.395-.32.23-.527.617-.73.988-.211.387-.426.781-.711.875-.266.086-.665-.102-1.047-.285-.39-.184-.797-.375-1.211-.375zm4.664.789a.313.313 0 00-.383.223l-.559 2.09-1.105-1.915c.418-.215.664-.664.902-1.101.168-.309.344-.633.547-.781.211-.153.57-.223.922-.286.125-.023.25-.046.371-.074l1.39 2.41-2.085-.566z" fill="#000"/><path d="M13.19 6.629a.314.314 0 00-.442 0L9.584 9.793 7.775 7.984a.314.314 0 00-.441 0 .314.314 0 000 .442l2.031 2.031a.31.31 0 00.223.09.31.31 0 00.223-.09L13.19 7.07a.314.314 0 000-.441z" fill="#000"/></svg>