<svg width="20" height="20" fill="none" xmlns="http://www.w3.org/2000/svg"><path d="M13.134 6.528c-.17-.424.51-.68.68-.234.234.66 1.446.682 1.446-.042 0-.34-.8-.468-1.106-.532-.51-.106-1.02-.552-1.02-1.106a1.2 1.2 0 01.936-1.148.166.166 0 00.106-.17V3a.362.362 0 01.722 0v.34a.22.22 0 00.106.17 1.599 1.599 0 01.914.914.36.36 0 01-.68.234A.8.8 0 0014 4.296c-.4.318 0 .638.34.722.702.172 1.636.298 1.636 1.234a1.2 1.2 0 01-.956 1.2.2.2 0 00-.128.17v.296a.361.361 0 01-.722 0v-.39c0-.042-.022-.084-.064-.084a1.507 1.507 0 01-.978-.916h.006zM10.84 8.144l-.362.15a.154.154 0 00-.128.148v9.442a.17.17 0 00.256.148l7.48-3.444a.32.32 0 00.2-.298V8.932a.362.362 0 01.722 0v5.358a1.046 1.046 0 01-.616.956l-7.956 3.658a1.038 1.038 0 01-.872 0l-7.948-3.658A1.046 1.046 0 011 14.29V5.146a1.012 1.012 0 01.68-.978l7.948-3.082a.894.894 0 01.744 0l.428.148c.448.17.17.85-.254.68l-.426-.17a.416.416 0 00-.232 0l-7.226 2.8a.168.168 0 000 .318l1.36.51a.128.128 0 00.148-.02c.08-.052.166-.095.256-.128l6.626-2.566c.022-.02.042-.02.064-.064A4.517 4.517 0 0114.538 1a4.456 4.456 0 110 8.91A4.516 4.516 0 0111.03 8.2a.17.17 0 00-.19-.064v.008zm-1.318.15l-2.55-1a.176.176 0 00-.234.17v2.616a.706.706 0 01-.956.658l-1.552-.616a.712.712 0 01-.468-.658V6.188a.172.172 0 00-.106-.17l-1.7-.658a.176.176 0 00-.234.17v8.76a.32.32 0 00.2.298L9.4 18.032a.175.175 0 00.256-.148V8.442a.154.154 0 00-.128-.148h-.006zM7.652 6.8l2.232.85c.076.02.156.02.232 0l.284-.1a.174.174 0 00.106-.234 4.415 4.415 0 01-.4-1.85c.003-.491.082-.979.234-1.446a.178.178 0 00-.214-.234L4.698 5.89a.308.308 0 00-.212.298v3.168a.162.162 0 00.106.15l1.19.468a.172.172 0 00.234-.174V7.06a1.036 1.036 0 01.68-.978L8.97 5.2a.363.363 0 11.254.68l-1.572.6a.186.186 0 000 .342V6.8zm9.148 6.044a.363.363 0 11.254.68l-2.878 1.106a.357.357 0 01-.276-.658l2.9-1.128zm-5.982-7.378a3.73 3.73 0 107.46 0 3.73 3.73 0 00-7.46 0z" fill="#000"/></svg>