<svg width="21" height="20" fill="none" xmlns="http://www.w3.org/2000/svg"><g clip-path="url(#clip0_1395_2385)"><path d="M20.5 14.286c-.114-1.171-.714-2.237-1.689-3.001a5.458 5.458 0 00-1.273-.737v-5.28a.312.312 0 00-.157-.27L9.185.264a.312.312 0 00-.313 0L.676 4.997a.312.312 0 00-.156.27v9.465a.312.312 0 00.156.27l8.196 4.733a.313.313 0 00.313 0l8.196-4.732a.312.312 0 00.137-.163c.213.275.36.584.43.909.258 1.2-.518 2.368-2.026 3.046a.313.313 0 00.188.592c1.447-.284 2.63-.957 3.424-1.947.732-.912 1.075-2.032.966-3.154zM9.029 9.639L6.744 8.32l7.571-4.371L16.6 5.268 9.029 9.639zM4.367 6.948l7.571-4.372 1.752 1.012-7.57 4.371-1.753-1.011zM5.807 8.5v3.006l-1.753-1.012V7.49L5.806 8.5zM9.028.896l2.284 1.32-7.571 4.37-2.285-1.318L9.029.896zM1.145 5.81l2.284 1.32v3.546a.312.312 0 00.157.27l2.377 1.373a.313.313 0 00.468-.271V8.861l2.285 1.32v8.742l-7.571-4.371V5.809zM9.34 18.923V10.18l7.572-4.371v4.516a8.294 8.294 0 00-2.139-.332V8.982a.312.312 0 00-.513-.24l-3.612 3.024a.311.311 0 00.015.492l3.613 2.65a.312.312 0 00.498-.252v-1.05c.827.044 1.554.267 2.117.65l.02.015v.28L9.34 18.923zm8.637-.918c.076-.1.147-.204.212-.311.393-.654.52-1.372.37-2.077-.16-.74-.627-1.407-1.316-1.877-.737-.502-1.699-.768-2.782-.768a.313.313 0 00-.313.313v.754l-2.794-2.05 2.794-2.338v.65a.313.313 0 00.313.312c3.73 0 5.248 2.01 5.416 3.733.122 1.262-.452 2.733-1.9 3.659z" fill="#16110C"/></g><defs><clipPath id="clip0_1395_2385"><path fill="#fff" transform="translate(.52)" d="M0 0h20v20H0z"/></clipPath></defs></svg>