<svg width="16" height="15" fill="none" xmlns="http://www.w3.org/2000/svg"><g clip-path="url(#clip0_1253_20368)" fill="#16110C"><path d="M11.959 6.8a.6.6 0 00-.6.6v4.8a.6.6 0 01-.6.6h-8.4a.6.6 0 01-.6-.6V3.8a.6.6 0 01.6-.6h4.8a.6.6 0 100-1.2h-4.8c-.993 0-1.8.808-1.8 1.8v8.4c0 .992.807 1.8 1.8 1.8h8.4c.992 0 1.8-.808 1.8-1.8V7.4a.6.6 0 00-.6-.6z"/><path d="M6.055 6.448a.294.294 0 00-.08.148l-.41 2.056a.292.292 0 00.342.342l2.055-.41a.29.29 0 00.15-.08l4.6-4.602-2.056-2.055-4.601 4.6zM14.133.425a1.455 1.455 0 00-2.056 0l-.804.805 2.055 2.056.805-.805c.274-.274.426-.64.426-1.028S14.407.7 14.133.425z"/></g><defs><clipPath id="clip0_1253_20368"><path fill="#fff" transform="translate(.559)" d="M0 0h15v15H0z"/></clipPath></defs></svg>