<svg width="67" height="67" fill="none" xmlns="http://www.w3.org/2000/svg"><path d="M62.813 0H4.187c-1.116 0-2.093.407-2.93 1.221C.418 2.036 0 3.001 0 4.118v36.431c0 1.163.407 2.152 1.221 2.966.815.814 1.803 1.221 2.966 1.221h58.626c1.163 0 2.151-.418 2.966-1.256.814-.837 1.221-1.814 1.221-2.931V4.118c0-1.163-.419-2.14-1.256-2.932C64.906.396 63.929 0 62.813 0zM2.791 4.397l19.75 16.122L2.793 39.92V4.397zm31.545 20.798a1.296 1.296 0 01-.837.279c-.326 0-.605-.093-.837-.28L5.234 2.793h56.532L34.338 25.195zm-9.561-2.862l6.142 5.025c.744.605 1.617.908 2.617.908s1.873-.303 2.617-.908l6.142-5.025 19.96 19.612H4.746l20.03-19.612zm19.681-1.814L64.208 4.397V39.92l-19.75-19.402zm-33.64 34.058v-4.676c0-.372-.139-.698-.418-.977a1.34 1.34 0 00-.977-.419c-.372 0-.698.14-.977.419-.28.28-.419.605-.419.977v4.676c0 .372.14.698.419.977.279.28.605.419.977.419s.698-.14.977-.419c.28-.279.419-.605.419-.977zM22.893 57.3v-7.398c0-.372-.14-.698-.42-.977a1.379 1.379 0 00-1.011-.419c-.395 0-.721.14-.977.419a1.4 1.4 0 00-.384.977V57.3c0 .372.128.698.384.977.256.28.581.419.977.419.395 0 .733-.14 1.012-.419.28-.28.419-.605.419-.977zm12.004 2.792V49.9c0-.372-.14-.698-.419-.977a1.34 1.34 0 00-.977-.419c-.372 0-.698.14-.977.419a1.34 1.34 0 00-.419.977v10.19c0 .372.14.697.419.977.28.279.605.419.977.419s.698-.14.977-.42c.28-.279.419-.604.419-.976zm12.074 2.721V49.901c0-.372-.14-.698-.419-.977a1.339 1.339 0 00-.977-.419c-.372 0-.698.14-.977.419-.28.28-.419.605-.419.977v12.911c0 .373.128.698.384.978.256.279.593.418 1.012.418.419 0 .756-.14 1.012-.418a1.4 1.4 0 00.384-.977zm10.608-14.307c-.372 0-.698.14-.977.419a1.34 1.34 0 00-.419.977v15.703c0 .372.14.698.419.977.28.28.605.419.977.419s.698-.14.977-.419c.28-.279.419-.605.419-.977V49.901c0-.372-.14-.698-.419-.977a1.34 1.34 0 00-.977-.419z" fill="#8B9F57"/></svg>