<svg width="14" height="15" fill="none" xmlns="http://www.w3.org/2000/svg"><path d="M6.663 7.226c.992 0 1.852-.356 2.554-1.059a3.496 3.496 0 001.058-2.554c0-.993-.355-1.852-1.058-2.555A3.497 3.497 0 006.663 0C5.67 0 4.81.356 4.108 1.058A3.496 3.496 0 003.05 3.613c0 .992.356 1.852 1.058 2.554a3.497 3.497 0 002.555 1.059zM4.73 1.68A2.611 2.611 0 016.663.879c.761 0 1.394.262 1.933.8.538.54.8 1.172.8 1.934 0 .761-.262 1.394-.8 1.933a2.611 2.611 0 01-1.933.8 2.612 2.612 0 01-1.933-.8 2.611 2.611 0 01-.801-1.933c0-.762.262-1.394.8-1.933zm8.254 9.854a8.91 8.91 0 00-.121-.948 7.639 7.639 0 00-.233-.953 4.71 4.71 0 00-.392-.888 3.35 3.35 0 00-.59-.77 2.605 2.605 0 00-.85-.533 2.934 2.934 0 00-1.083-.196c-.153 0-.301.063-.587.249-.203.132-.407.264-.612.394a3.505 3.505 0 01-.791.349c-.32.104-.647.156-.968.156-.322 0-.647-.052-.968-.156a3.496 3.496 0 01-.791-.349 83.586 83.586 0 01-.612-.394c-.286-.187-.434-.25-.587-.25-.39 0-.755.067-1.084.197-.33.13-.615.31-.848.533a3.35 3.35 0 00-.59.77 4.718 4.718 0 00-.392.889 7.478 7.478 0 00-.233.952c-.06.337-.102.656-.122.949-.02.286-.03.584-.03.885 0 .783.249 1.417.74 1.885.485.461 1.126.695 1.906.695h7.223c.78 0 1.42-.234 1.906-.695.49-.467.74-1.101.74-1.885 0-.302-.01-.6-.03-.886zm-1.315 2.134c-.32.305-.746.453-1.3.453H3.145c-.555 0-.98-.148-1.3-.453-.314-.299-.467-.707-.467-1.248 0-.28.01-.558.028-.825a7.928 7.928 0 01.315-1.693 3.84 3.84 0 01.319-.723c.126-.223.272-.415.434-.569.15-.144.34-.262.564-.35.207-.083.44-.128.692-.134.031.016.086.047.175.105.18.118.389.252.619.4.26.165.594.314.993.443.409.132.825.2 1.239.2.413 0 .83-.068 1.238-.2.4-.129.734-.278.994-.444.236-.15.438-.281.62-.399.088-.058.143-.09.174-.105.252.006.485.051.692.133.224.089.414.207.564.351.162.154.308.346.434.57.134.233.241.476.32.722.082.256.15.539.205.84.054.305.091.593.11.853.018.266.027.543.028.825 0 .54-.153.949-.467 1.248z" fill="#000"/></svg>