<svg width="16" height="15" fill="none" xmlns="http://www.w3.org/2000/svg"><g clip-path="url(#clip0_196_4814)"><path d="M7.713 7.226c.992 0 1.852-.356 2.554-1.059a3.496 3.496 0 001.059-2.554 3.5 3.5 0 00-1.059-2.555A3.497 3.497 0 007.713 0C6.72 0 5.86.356 5.158 1.058A3.496 3.496 0 004.1 3.613c0 .992.356 1.852 1.058 2.554a3.497 3.497 0 002.555 1.059zm6.321 4.308a8.942 8.942 0 00-.121-.948 7.46 7.46 0 00-.233-.953 4.71 4.71 0 00-.392-.888 3.353 3.353 0 00-.59-.77 2.605 2.605 0 00-.85-.533 2.933 2.933 0 00-1.083-.196c-.153 0-.3.063-.587.249-.203.132-.407.264-.612.394a3.505 3.505 0 01-.791.349c-.32.104-.647.156-.968.156a3.14 3.14 0 01-.968-.156 3.498 3.498 0 01-.791-.349 83.586 83.586 0 01-.612-.394c-.286-.187-.434-.25-.587-.25-.39 0-.755.067-1.084.197-.33.13-.615.31-.848.533a3.354 3.354 0 00-.59.77 4.718 4.718 0 00-.392.889 7.481 7.481 0 00-.233.952c-.06.337-.102.656-.122.949-.02.294-.03.59-.03.885 0 .783.249 1.417.74 1.885.485.461 1.126.695 1.906.695h7.223c.78 0 1.42-.234 1.906-.695.49-.467.74-1.101.74-1.885 0-.302-.01-.6-.03-.886z" fill="#16110C"/></g><defs><clipPath id="clip0_196_4814"><path fill="#fff" transform="translate(.3)" d="M0 0h15v15H0z"/></clipPath></defs></svg>