<svg width="14" height="16" fill="none" xmlns="http://www.w3.org/2000/svg"><path d="M8.3.5h-3C2.415.5.054 2.862.054 5.748v2.249c0 2.024 1.18 3.88 2.999 4.742v2.511c0 .225.28.338.43.169l2.175-2.174H8.3c2.887 0 5.248-2.362 5.248-5.248v-2.25C13.547 2.863 11.186.5 8.3.5zm1.967 9.84l-.768.75c-.806.787-2.886-.113-4.723-1.987-1.837-1.875-2.643-3.974-1.874-4.76l.75-.75c.28-.282.749-.263 1.068.018l1.087 1.125c.393.393.225 1.068-.281 1.218-.357.112-.6.506-.488.862.188.825 1.237 1.874 2.024 2.08.357.075.75-.112.881-.468.169-.506.844-.656 1.219-.262l1.087 1.124c.3.262.3.731.018 1.05zM7.475 4.06c-.075 0-.15 0-.225.019-.131.018-.263-.094-.281-.225-.019-.131.093-.263.225-.281.093-.019.187-.019.28-.019a2.504 2.504 0 012.493 2.493c0 .093 0 .187-.018.28-.019.132-.15.244-.281.226-.132-.019-.244-.15-.225-.281 0-.075.018-.15.018-.225.02-1.087-.88-1.987-1.986-1.987zm1.5 2.005a.248.248 0 01-.245.244.248.248 0 01-.243-.244 1 1 0 00-.993-.993.248.248 0 01-.244-.244c0-.13.112-.243.244-.243.805-.019 1.48.656 1.48 1.48zm1.91.806a.263.263 0 01-.318.188.24.24 0 01-.168-.3c.056-.225.075-.45.075-.694a3.008 3.008 0 00-3-2.998H7.25c-.131 0-.263-.094-.263-.225s.094-.263.225-.263c.094 0 .188-.018.263-.018a3.512 3.512 0 013.505 3.504c0 .263-.038.544-.094.806z" fill="#16110C"/></svg>