<svg width="8" height="5" viewBox="0 0 8 5" fill="none" xmlns="http://www.w3.org/2000/svg">
<path d="M7.54899 1.284L4.56099 4.284C4.40899 4.428 4.23099 4.5 4.02699 4.5C3.82299 4.5 3.64099 4.428 3.48099 4.284L0.504994 1.284C0.384994 1.18 0.308994 1.054 0.276994 0.906C0.244994 0.758 0.260994 0.612 0.324994 0.468C0.388994 0.324 0.482994 0.21 0.606994 0.126C0.730994 0.0419998 0.868994 0 1.02099 0H6.99699C7.14899 0 7.28899 0.0419998 7.41699 0.126C7.54499 0.21 7.63899 0.324 7.69899 0.468C7.75899 0.612 7.77499 0.758 7.74699 0.906C7.71899 1.054 7.65299 1.18 7.54899 1.284Z" fill="#16110C"/>
</svg>
