<svg width="13" height="9" viewBox="0 0 13 9" fill="none" xmlns="http://www.w3.org/2000/svg">
<path d="M12.5734 5.02797L9.57337 8.02797C9.42137 8.17997 9.24337 8.25397 9.03937 8.24997C8.83537 8.24597 8.65937 8.17197 8.51137 8.02797C8.36337 7.88397 8.28937 7.70797 8.28937 7.49997C8.28937 7.29197 8.36137 7.11597 8.50537 6.97197L10.2334 5.24397H1.54537C1.33737 5.24397 1.15937 5.16997 1.01137 5.02197C0.863368 4.87397 0.789368 4.69197 0.789368 4.47597C0.789368 4.25997 0.861368 4.08397 1.00537 3.94797C1.14937 3.81197 1.32937 3.74397 1.54537 3.74397H10.2334L8.50537 2.02797C8.36137 1.88397 8.28937 1.70797 8.28937 1.49997C8.28937 1.29197 8.36137 1.11597 8.50537 0.971968C8.64937 0.827968 8.82537 0.753968 9.03337 0.749968C9.24137 0.745968 9.42137 0.819968 9.57337 0.971968L12.5734 3.97197C12.7174 4.11597 12.7894 4.29197 12.7894 4.49997C12.7894 4.70797 12.7174 4.88397 12.5734 5.02797Z" fill="white"/>
</svg>
