<svg width="8" height="5" viewBox="0 0 8 5" fill="none" xmlns="http://www.w3.org/2000/svg">
<path d="M3.94451 4.80979C3.79441 4.80979 3.65933 4.75575 3.53925 4.64768L0.162103 1.27054C0.0540344 1.16247 0 1.03038 0 0.874284C0 0.718185 0.0540344 0.5861 0.162103 0.478032C0.270172 0.369963 0.402256 0.314428 0.558355 0.311426C0.714455 0.308424 0.84954 0.363959 0.963613 0.478032L3.94451 3.45893L6.9164 0.478032C7.03047 0.363959 7.16406 0.306923 7.31715 0.306923C7.47025 0.306923 7.60384 0.363959 7.71791 0.478032C7.83198 0.592104 7.88752 0.725689 7.88452 0.878787C7.88151 1.03188 7.82598 1.16247 7.71791 1.27054L4.34076 4.64768C4.23269 4.75575 4.10061 4.80979 3.94451 4.80979Z" fill="#8B9F57"/>
</svg>
