<svg width="12" height="8" viewBox="0 0 12 8" fill="none" xmlns="http://www.w3.org/2000/svg">
<path d="M11.809 4.278L8.80902 7.278C8.65702 7.43 8.47902 7.504 8.27502 7.5C8.07102 7.496 7.89502 7.422 7.74702 7.278C7.59902 7.134 7.52502 6.958 7.52502 6.75C7.52502 6.542 7.59702 6.366 7.74102 6.222L9.46902 4.494H0.781024C0.573024 4.494 0.395024 4.42 0.247024 4.272C0.0990244 4.124 0.0250244 3.942 0.0250244 3.726C0.0250244 3.51 0.0970244 3.334 0.241024 3.198C0.385024 3.062 0.565024 2.994 0.781024 2.994H9.46902L7.74102 1.278C7.59702 1.134 7.52502 0.957999 7.52502 0.749999C7.52502 0.541999 7.59702 0.365999 7.74102 0.221999C7.88502 0.0779986 8.06102 0.00399876 8.26902 -1.43051e-06C8.47702 -0.00400114 8.65702 0.0699987 8.80902 0.221999L11.809 3.222C11.953 3.366 12.025 3.542 12.025 3.75C12.025 3.958 11.953 4.134 11.809 4.278Z" fill="#16110C"/>
</svg>
