<svg width="9" height="5" viewBox="0 0 9 5" fill="none" xmlns="http://www.w3.org/2000/svg">
<path d="M4.80462 4.80981C4.65452 4.80981 4.51944 4.75578 4.39936 4.64771L1.02221 1.27056C0.914142 1.16249 0.860107 1.03041 0.860107 0.874311C0.860107 0.718212 0.914142 0.586127 1.02221 0.478059C1.13028 0.36999 1.26236 0.314455 1.41846 0.311453C1.57456 0.308451 1.70965 0.363986 1.82372 0.478059L4.80462 3.45896L7.77651 0.478059C7.89058 0.363986 8.02417 0.30695 8.17726 0.30695C8.33036 0.30695 8.46394 0.363986 8.57802 0.478059C8.69209 0.592131 8.74763 0.725716 8.74462 0.878814C8.74162 1.03191 8.68609 1.16249 8.57802 1.27056L5.20087 4.64771C5.0928 4.75578 4.96072 4.80981 4.80462 4.80981Z" fill="#16110C"/>
</svg>
