<svg width="43" height="42" viewBox="0 0 43 42" fill="none" xmlns="http://www.w3.org/2000/svg">
<rect x="0.329987" width="42" height="42" rx="12" fill="#D1DFA3" fill-opacity="0.4"/>
<path d="M17.4 26.4C16.41 26.4 15.6 27.21 15.6 28.2C15.6 29.19 16.41 30 17.4 30C18.39 30 19.2 29.19 19.2 28.2C19.2 27.21 18.39 26.4 17.4 26.4ZM12 12V13.8H13.8L17.04 20.64L15.78 22.8C15.69 23.07 15.6 23.43 15.6 23.7C15.6 24.69 16.41 25.5 17.4 25.5H28.2V23.7H17.76C17.67 23.7 17.58 23.61 17.58 23.52V23.43L18.39 21.9H25.05C25.77 21.9 26.31 21.54 26.58 21L29.82 15.15C30 14.97 30 14.88 30 14.7C30 14.16 29.64 13.8 29.1 13.8H15.78L14.97 12H12ZM26.4 26.4C25.41 26.4 24.6 27.21 24.6 28.2C24.6 29.19 25.41 30 26.4 30C27.39 30 28.2 29.19 28.2 28.2C28.2 27.21 27.39 26.4 26.4 26.4Z" fill="#8B9F57"/>
</svg>
