<svg width="16" height="15" viewBox="0 0 16 15" fill="none" xmlns="http://www.w3.org/2000/svg">
<g clip-path="url(#clip0_196_4819)">
<path d="M5.38013 12C4.55513 12 3.88013 12.675 3.88013 13.5C3.88013 14.325 4.55513 15 5.38013 15C6.20513 15 6.88013 14.325 6.88013 13.5C6.88013 12.675 6.20513 12 5.38013 12ZM0.880127 0V1.5H2.38013L5.08013 7.2L4.03013 9C3.95513 9.225 3.88013 9.525 3.88013 9.75C3.88013 10.575 4.55513 11.25 5.38013 11.25H14.3801V9.75H5.68013C5.60513 9.75 5.53013 9.675 5.53013 9.6V9.52497L6.20513 8.24997H11.7551C12.3551 8.24997 12.8051 7.94997 13.0301 7.49997L15.7301 2.625C15.8801 2.475 15.8801 2.4 15.8801 2.25C15.8801 1.8 15.5801 1.5 15.1301 1.5H4.03013L3.35513 0H0.880127ZM12.8801 12C12.0551 12 11.3801 12.675 11.3801 13.5C11.3801 14.325 12.0551 15 12.8801 15C13.7051 15 14.3801 14.325 14.3801 13.5C14.3801 12.675 13.7051 12 12.8801 12Z" fill="#16110C"/>
</g>
<defs>
<clipPath id="clip0_196_4819">
<rect width="15" height="15" fill="white" transform="translate(0.880127)"/>
</clipPath>
</defs>
</svg>
