<svg width="20" height="20" viewBox="0 0 20 20" fill="none" xmlns="http://www.w3.org/2000/svg">
<path d="M19.4087 4.07908H16.7206V3.78838H16.9571C17.2837 3.78838 17.5484 3.52365 17.5484 3.19712C17.5484 2.87059 17.2837 2.60587 16.9571 2.60587H15.3016C14.9751 2.60587 14.7104 2.87059 14.7104 3.19712C14.7104 3.52365 14.9751 3.78838 15.3016 3.78838H15.5381V4.07908H4.46193V3.78838H4.69843C5.02496 3.78838 5.28969 3.52365 5.28969 3.19712C5.28969 2.87059 5.02496 2.60587 4.69843 2.60587H3.04292C2.71638 2.60587 2.45166 2.87059 2.45166 3.19712C2.45166 3.52365 2.71638 3.78838 3.04292 3.78838H3.27942V4.07908H0.591255C0.264725 4.07908 0 4.3438 0 4.67033V8.8386C0 9.16513 0.264725 9.42986 0.591255 9.42986H3.27938V10.4448C3.27938 10.7714 3.5441 11.0361 3.87063 11.0361C4.19716 11.0361 4.46189 10.7714 4.46189 10.4448V9.42986H15.5381V10.4448C15.5381 10.7714 15.8028 11.0361 16.1293 11.0361C16.4559 11.0361 16.7206 10.7714 16.7206 10.4448V9.42986H19.4087C19.7352 9.42986 20 9.16513 20 8.8386V4.67033C20 4.3438 19.7353 4.07908 19.4087 4.07908ZM1.18251 8.24735V5.26159H3.27938V8.24735H1.18251ZM4.46189 8.24735V5.26159H15.5381V8.24735H4.46189ZM18.8175 8.24735H16.7206V5.26159H18.8175V8.24735ZM5.99103 14.7474C5.94726 14.5518 5.87668 14.3632 5.78129 14.1869L5.77936 14.1834C5.76811 14.1626 5.75652 14.1419 5.7446 14.1214C5.73336 14.1023 5.72107 14.0838 5.70778 14.066L4.34407 12.2429C4.28902 12.1693 4.21756 12.1095 4.13538 12.0684C4.05319 12.0272 3.96255 12.0058 3.87063 12.0058H3.87051C3.77857 12.0058 3.68791 12.0273 3.60571 12.0685C3.52352 12.1097 3.45207 12.1695 3.39704 12.2431L2.03128 14.0705C2.0178 14.0886 2.00538 14.1073 1.99407 14.1268C1.98325 14.1453 1.97273 14.1641 1.96249 14.183L1.9606 14.1864C1.71064 14.6474 1.63591 15.1832 1.75019 15.6949C1.97594 16.7053 2.87555 17.3941 3.87032 17.3941C4.02672 17.3941 4.1855 17.3771 4.34435 17.3416C5.51349 17.0804 6.25225 15.9167 5.99103 14.7474C5.99103 14.7475 5.99103 14.7475 5.99103 14.7474ZM4.08648 16.1876C3.5536 16.3063 3.02325 15.9699 2.90425 15.4371C2.85246 15.2049 2.88603 14.9619 2.99881 14.7525L3.00027 14.7499L3.00145 14.7477L3.87079 13.5844L4.73797 14.7437L4.74096 14.7493L4.74254 14.7521C4.7854 14.8318 4.81716 14.917 4.83694 15.0053C4.95602 15.5382 4.61932 16.0685 4.08648 16.1876ZM18.2497 14.7474C18.206 14.5518 18.1354 14.3632 18.04 14.1869L18.0381 14.1834C18.0268 14.1626 18.0152 14.1419 18.0033 14.1214C17.9921 14.1023 17.9798 14.0838 17.9665 14.066L16.6028 12.2429C16.5477 12.1693 16.4763 12.1095 16.3941 12.0684C16.3119 12.0272 16.2212 12.0058 16.1293 12.0058H16.1292C16.0373 12.0058 15.9466 12.0273 15.8644 12.0685C15.7822 12.1097 15.7108 12.1695 15.6557 12.2431L14.29 14.0705C14.2765 14.0886 14.2641 14.1073 14.2528 14.1268C14.2419 14.1453 14.2314 14.1641 14.2212 14.183L14.2193 14.1864C13.9693 14.6474 13.8946 15.1832 14.0089 15.6949C14.2346 16.7053 15.1342 17.3941 16.129 17.3941C16.2854 17.3941 16.4442 17.3771 16.603 17.3416C17.7722 17.0804 18.5109 15.9167 18.2497 14.7474C18.2497 14.7475 18.2497 14.7475 18.2497 14.7474ZM16.3452 16.1876C15.8123 16.3063 15.282 15.9699 15.1629 15.4371C15.1111 15.2049 15.1447 14.9619 15.2575 14.7525L15.259 14.7499L15.2601 14.7477L16.1295 13.5844L16.9967 14.7437L16.9997 14.7493L17.0012 14.7521C17.0441 14.8318 17.0759 14.917 17.0956 15.0053C17.2147 15.5382 16.878 16.0685 16.3452 16.1876Z" fill="#16110C"/>
</svg>
