<svg width="15" height="15" viewBox="0 0 15 15" fill="none" xmlns="http://www.w3.org/2000/svg">
<g clip-path="url(#clip0_749_15813)">
<path fill-rule="evenodd" clip-rule="evenodd" d="M7.5 0C3.36328 0 0 3.36328 0 7.5C0 11.6367 3.36328 15 7.5 15C11.6367 15 15 11.6367 15 7.5C15 3.36328 11.6367 0 7.5 0Z" fill="#8B9F57"/>
<path fill-rule="evenodd" clip-rule="evenodd" d="M11.1284 4.97168C11.3101 5.15332 11.3101 5.45215 11.1284 5.63379L6.73389 10.0283C6.64307 10.1191 6.52295 10.166 6.40283 10.166C6.28272 10.166 6.1626 10.1191 6.07178 10.0283L3.87451 7.83105C3.69287 7.64941 3.69287 7.35059 3.87451 7.16895C4.05615 6.9873 4.35498 6.9873 4.53662 7.16895L6.40283 9.03516L10.4663 4.97168C10.6479 4.78711 10.9468 4.78711 11.1284 4.97168Z" fill="white"/>
</g>
<defs>
<clipPath id="clip0_749_15813">
<rect width="15" height="15" fill="white"/>
</clipPath>
</defs>
</svg>
