<svg width="16" height="15" viewBox="0 0 16 15" fill="none" xmlns="http://www.w3.org/2000/svg">
<g clip-path="url(#clip0_219_11542)">
<path d="M8 15C12.1411 15 15.5 11.6411 15.5 7.5C15.5 3.35892 12.1411 0 8 0C3.85892 0 0.5 3.35892 0.5 7.5C0.5 11.6411 3.85892 15 8 15ZM7.46427 3.21429C7.46427 2.91964 7.70535 2.67856 8 2.67856C8.29465 2.67856 8.53573 2.91964 8.53573 3.21429V7.24286L11.0134 9.22501C11.2438 9.40983 11.2813 9.74731 11.0964 9.97768C11.0464 10.0405 10.9829 10.0912 10.9105 10.126C10.8381 10.1607 10.7588 10.1787 10.6786 10.1786C10.5607 10.1786 10.4428 10.141 10.3438 10.0607L7.6652 7.91787C7.5393 7.81607 7.46431 7.66341 7.46431 7.5V3.21429H7.46427Z" fill="white"/>
</g>
<defs>
<clipPath id="clip0_219_11542">
<rect width="15" height="15" fill="white" transform="translate(0.5)"/>
</clipPath>
</defs>
</svg>
