<svg width="15" height="13" viewBox="0 0 15 13" fill="none" xmlns="http://www.w3.org/2000/svg">
<path d="M7.49999 12.973C7.42411 12.973 7.34826 12.9534 7.28029 12.9141C7.20647 12.8715 5.45244 11.8531 3.67325 10.3186C2.61874 9.40916 1.77698 8.50711 1.17142 7.63758C0.387789 6.51241 -0.00628169 5.43013 7.57054e-05 4.42077C0.00751709 3.24626 0.428189 2.14171 1.18469 1.31056C1.95397 0.465409 2.98058 0 4.07549 0C5.47872 0 6.76165 0.786032 7.50002 2.0312C8.23839 0.786062 9.52132 0 10.9246 0C11.959 0 12.9459 0.41994 13.7036 1.18248C14.5352 2.01928 15.0076 3.20164 14.9999 4.42633C14.9935 5.43394 14.5921 6.51458 13.8067 7.6382C13.1993 8.50729 12.3587 9.40892 11.3083 10.3181C9.53562 11.8525 7.79419 12.8709 7.72092 12.9135C7.65382 12.9525 7.5776 12.973 7.49999 12.973Z" fill="#8B9F57"/>
</svg>
