<svg width="85" height="23" viewBox="0 0 85 23" fill="none" xmlns="http://www.w3.org/2000/svg">
<path d="M0.40625 22.5074V0.689264H6.32955V17.7347H15.1506V22.5074H0.40625ZM37.8317 11.5984C37.8317 14.0273 37.3594 16.0763 36.4148 17.7454C35.4702 19.4073 34.1953 20.668 32.5902 21.5273C30.9851 22.3796 29.1953 22.8057 27.2209 22.8057C25.2322 22.8057 23.4354 22.3761 21.8303 21.5167C20.2322 20.6502 18.9609 19.386 18.0163 17.7241C17.0788 16.055 16.6101 14.0131 16.6101 11.5984C16.6101 9.16938 17.0788 7.12392 18.0163 5.46199C18.9609 3.79296 20.2322 2.5323 21.8303 1.68003C23.4354 0.820656 25.2322 0.390968 27.2209 0.390968C29.1953 0.390968 30.9851 0.820656 32.5902 1.68003C34.1953 2.5323 35.4702 3.79296 36.4148 5.46199C37.3594 7.12392 37.8317 9.16938 37.8317 11.5984ZM31.7379 11.5984C31.7379 10.2915 31.5639 9.19068 31.2159 8.2958C30.875 7.39381 30.3672 6.71199 29.6925 6.25034C29.0249 5.78159 28.201 5.54722 27.2209 5.54722C26.2408 5.54722 25.4134 5.78159 24.7386 6.25034C24.071 6.71199 23.5632 7.39381 23.2152 8.2958C22.8743 9.19068 22.7038 10.2915 22.7038 11.5984C22.7038 12.9052 22.8743 14.0096 23.2152 14.9116C23.5632 15.8065 24.071 16.4883 24.7386 16.957C25.4134 17.4187 26.2408 17.6495 27.2209 17.6495C28.201 17.6495 29.0249 17.4187 29.6925 16.957C30.3672 16.4883 30.875 15.8065 31.2159 14.9116C31.5639 14.0096 31.7379 12.9052 31.7379 11.5984ZM54.7413 7.89097C54.649 7.51455 54.5034 7.18429 54.3045 6.9002C54.1056 6.60901 53.8571 6.36398 53.5588 6.16512C53.2676 5.95915 52.9267 5.80645 52.536 5.70702C52.1525 5.60049 51.7299 5.54722 51.2683 5.54722C50.274 5.54722 49.4252 5.78514 48.7221 6.261C48.0261 6.73685 47.4934 7.42222 47.1241 8.31711C46.7619 9.21199 46.5808 10.2915 46.5808 11.5557C46.5808 12.8342 46.7548 13.9279 47.1028 14.837C47.4508 15.7461 47.9693 16.4421 48.6582 16.9251C49.3471 17.408 50.2029 17.6495 51.2257 17.6495C52.1277 17.6495 52.877 17.5181 53.4735 17.2553C54.0772 16.9925 54.5282 16.6197 54.8265 16.1367C55.1248 15.6538 55.274 15.0856 55.274 14.4322L56.2967 14.5387H51.3109V10.3199H60.9842V13.3455C60.9842 15.3342 60.5616 17.0351 59.7164 18.4485C58.8784 19.8547 57.7207 20.9343 56.2434 21.6871C54.7733 22.4329 53.0865 22.8057 51.1831 22.8057C49.0595 22.8057 47.1951 22.3547 45.59 21.4528C43.9849 20.5508 42.7314 19.2653 41.8294 17.5962C40.9345 15.9272 40.487 13.9421 40.487 11.641C40.487 9.83699 40.7605 8.23898 41.3074 6.84693C41.8613 5.45489 42.6284 4.27946 43.6085 3.32066C44.5886 2.35475 45.7214 1.62676 47.0069 1.13671C48.2924 0.639548 49.6703 0.390968 51.1404 0.390968C52.4331 0.390968 53.6333 0.575628 54.7413 0.944946C55.8564 1.30716 56.84 1.82563 57.6923 2.50034C58.5517 3.16796 59.2441 3.95986 59.7697 4.87605C60.2953 5.79225 60.6149 6.79722 60.7285 7.89097H54.7413ZM84.8825 11.5984C84.8825 14.0273 84.4102 16.0763 83.4656 17.7454C82.521 19.4073 81.2461 20.668 79.641 21.5273C78.0359 22.3796 76.2461 22.8057 74.2717 22.8057C72.283 22.8057 70.4862 22.3761 68.881 21.5167C67.283 20.6502 66.0117 19.386 65.0671 17.7241C64.1296 16.055 63.6609 14.0131 63.6609 11.5984C63.6609 9.16938 64.1296 7.12392 65.0671 5.46199C66.0117 3.79296 67.283 2.5323 68.881 1.68003C70.4862 0.820656 72.283 0.390968 74.2717 0.390968C76.2461 0.390968 78.0359 0.820656 79.641 1.68003C81.2461 2.5323 82.521 3.79296 83.4656 5.46199C84.4102 7.12392 84.8825 9.16938 84.8825 11.5984ZM78.7887 11.5984C78.7887 10.2915 78.6147 9.19068 78.2667 8.2958C77.9258 7.39381 77.418 6.71199 76.7433 6.25034C76.0756 5.78159 75.2518 5.54722 74.2717 5.54722C73.2915 5.54722 72.4641 5.78159 71.7894 6.25034C71.1218 6.71199 70.614 7.39381 70.266 8.2958C69.9251 9.19068 69.7546 10.2915 69.7546 11.5984C69.7546 12.9052 69.9251 14.0096 70.266 14.9116C70.614 15.8065 71.1218 16.4883 71.7894 16.957C72.4641 17.4187 73.2915 17.6495 74.2717 17.6495C75.2518 17.6495 76.0756 17.4187 76.7433 16.957C77.418 16.4883 77.9258 15.8065 78.2667 14.9116C78.6147 14.0096 78.7887 12.9052 78.7887 11.5984Z" fill="#16110C"/>
</svg>
