<svg width="85" height="24" viewBox="0 0 85 24" fill="none" xmlns="http://www.w3.org/2000/svg">
<path d="M0.40625 23V1.18182H6.32955V18.2273H15.1506V23H0.40625ZM37.8317 12.0909C37.8317 14.5199 37.3594 16.5689 36.4148 18.2379C35.4702 19.8999 34.1953 21.1605 32.5902 22.0199C30.9851 22.8722 29.1953 23.2983 27.2209 23.2983C25.2322 23.2983 23.4354 22.8686 21.8303 22.0092C20.2322 21.1428 18.9609 19.8786 18.0163 18.2166C17.0788 16.5476 16.6101 14.5057 16.6101 12.0909C16.6101 9.66193 17.0788 7.61648 18.0163 5.95455C18.9609 4.28551 20.2322 3.02486 21.8303 2.17258C23.4354 1.31321 25.2322 0.883522 27.2209 0.883522C29.1953 0.883522 30.9851 1.31321 32.5902 2.17258C34.1953 3.02486 35.4702 4.28551 36.4148 5.95455C37.3594 7.61648 37.8317 9.66193 37.8317 12.0909ZM31.7379 12.0909C31.7379 10.7841 31.5639 9.68324 31.2159 8.78835C30.875 7.88636 30.3672 7.20454 29.6925 6.7429C29.0249 6.27415 28.201 6.03977 27.2209 6.03977C26.2408 6.03977 25.4134 6.27415 24.7386 6.7429C24.071 7.20454 23.5632 7.88636 23.2152 8.78835C22.8743 9.68324 22.7038 10.7841 22.7038 12.0909C22.7038 13.3977 22.8743 14.5021 23.2152 15.4041C23.5632 16.299 24.071 16.9808 24.7386 17.4496C25.4134 17.9112 26.2408 18.142 27.2209 18.142C28.201 18.142 29.0249 17.9112 29.6925 17.4496C30.3672 16.9808 30.875 16.299 31.2159 15.4041C31.5639 14.5021 31.7379 13.3977 31.7379 12.0909ZM54.7413 8.38352C54.649 8.0071 54.5034 7.67685 54.3045 7.39276C54.1056 7.10156 53.8571 6.85653 53.5588 6.65767C53.2676 6.4517 52.9267 6.29901 52.536 6.19957C52.1525 6.09304 51.7299 6.03977 51.2683 6.03977C50.274 6.03977 49.4252 6.2777 48.7221 6.75355C48.0261 7.2294 47.4934 7.91477 47.1241 8.80966C46.7619 9.70455 46.5808 10.7841 46.5808 12.0483C46.5808 13.3267 46.7548 14.4205 47.1028 15.3295C47.4508 16.2386 47.9693 16.9347 48.6582 17.4176C49.3471 17.9006 50.2029 18.142 51.2257 18.142C52.1277 18.142 52.877 18.0107 53.4735 17.7479C54.0772 17.4851 54.5282 17.1122 54.8265 16.6293C55.1248 16.1463 55.274 15.5781 55.274 14.9247L56.2967 15.0312H51.3109V10.8125H60.9842V13.8381C60.9842 15.8267 60.5616 17.5277 59.7164 18.9411C58.8784 20.3473 57.7207 21.4268 56.2434 22.1797C54.7733 22.9254 53.0865 23.2983 51.1831 23.2983C49.0595 23.2983 47.1951 22.8473 45.59 21.9453C43.9849 21.0433 42.7314 19.7578 41.8294 18.0888C40.9345 16.4197 40.487 14.4347 40.487 12.1335C40.487 10.3295 40.7605 8.73153 41.3074 7.33949C41.8613 5.94744 42.6284 4.77202 43.6085 3.81321C44.5886 2.8473 45.7214 2.11932 47.0069 1.62926C48.2924 1.1321 49.6703 0.883522 51.1404 0.883522C52.4331 0.883522 53.6333 1.06818 54.7413 1.4375C55.8564 1.79972 56.84 2.31818 57.6923 2.9929C58.5517 3.66051 59.2441 4.45241 59.7697 5.36861C60.2953 6.2848 60.6149 7.28977 60.7285 8.38352H54.7413ZM84.8825 12.0909C84.8825 14.5199 84.4102 16.5689 83.4656 18.2379C82.521 19.8999 81.2461 21.1605 79.641 22.0199C78.0359 22.8722 76.2461 23.2983 74.2717 23.2983C72.283 23.2983 70.4862 22.8686 68.881 22.0092C67.283 21.1428 66.0117 19.8786 65.0671 18.2166C64.1296 16.5476 63.6609 14.5057 63.6609 12.0909C63.6609 9.66193 64.1296 7.61648 65.0671 5.95455C66.0117 4.28551 67.283 3.02486 68.881 2.17258C70.4862 1.31321 72.283 0.883522 74.2717 0.883522C76.2461 0.883522 78.0359 1.31321 79.641 2.17258C81.2461 3.02486 82.521 4.28551 83.4656 5.95455C84.4102 7.61648 84.8825 9.66193 84.8825 12.0909ZM78.7887 12.0909C78.7887 10.7841 78.6147 9.68324 78.2667 8.78835C77.9258 7.88636 77.418 7.20454 76.7433 6.7429C76.0756 6.27415 75.2518 6.03977 74.2717 6.03977C73.2915 6.03977 72.4641 6.27415 71.7894 6.7429C71.1218 7.20454 70.614 7.88636 70.266 8.78835C69.9251 9.68324 69.7546 10.7841 69.7546 12.0909C69.7546 13.3977 69.9251 14.5021 70.266 15.4041C70.614 16.299 71.1218 16.9808 71.7894 17.4496C72.4641 17.9112 73.2915 18.142 74.2717 18.142C75.2518 18.142 76.0756 17.9112 76.7433 17.4496C77.418 16.9808 77.9258 16.299 78.2667 15.4041C78.6147 14.5021 78.7887 13.3977 78.7887 12.0909Z" fill="white"/>
</svg>
