<svg width="16" height="15" viewBox="0 0 16 15" fill="none" xmlns="http://www.w3.org/2000/svg">
<g clip-path="url(#clip0_219_11535)">
<path d="M9.50358 9.19017C9.1304 9.43896 8.69692 9.57047 8.25 9.57047C7.80311 9.57047 7.36963 9.43896 6.99645 9.19017L0.849873 5.09232C0.815942 5.06964 0.782638 5.04603 0.75 5.02151L0.75 11.7363C0.75 12.5061 1.37476 13.1171 2.13085 13.1171H14.3691C15.139 13.1171 15.75 12.4924 15.75 11.7363V5.02148C15.7173 5.04606 15.6839 5.06972 15.6499 5.09244L9.50358 9.19017Z" fill="white"/>
<path d="M1.3374 4.36109L7.48398 8.45896C7.71665 8.61409 7.98331 8.69164 8.24997 8.69164C8.51666 8.69164 8.78335 8.61406 9.01603 8.45896L15.1626 4.36109C15.5304 4.11603 15.75 3.70587 15.75 3.26319C15.75 2.50203 15.1308 1.88281 14.3696 1.88281H2.13038C1.36925 1.88284 0.750001 2.50206 0.750001 3.26393C0.749773 3.48108 0.803292 3.69491 0.905785 3.88635C1.00828 4.07779 1.15656 4.24089 1.3374 4.36109Z" fill="white"/>
</g>
<defs>
<clipPath id="clip0_219_11535">
<rect width="15" height="15" fill="white" transform="translate(0.75)"/>
</clipPath>
</defs>
</svg>
