<svg width="8" height="15" viewBox="0 0 8 15" fill="none" xmlns="http://www.w3.org/2000/svg">
<path d="M8 7.49611C8 7.76262 7.904 8.00247 7.712 8.21568L1.712 14.2122C1.52 14.4041 1.28533 14.5 1.008 14.5C0.730666 14.5 0.496 14.4041 0.303999 14.2122C0.112 14.0203 0.0133328 13.7858 0.00799942 13.5086C0.00266647 13.2314 0.101333 12.9916 0.303999 12.789L5.6 7.49611L0.303999 2.2192C0.101333 2.01665 0 1.77946 0 1.50762C0 1.23577 0.101333 0.99858 0.303999 0.796032C0.506666 0.593484 0.743999 0.494875 1.016 0.500205C1.288 0.505535 1.52 0.604144 1.712 0.796032L7.712 6.79252C7.904 6.98441 8 7.21893 8 7.49611Z" fill="#8B9F57"/>
</svg>
