<svg width="8" height="15" viewBox="0 0 8 15" fill="none" xmlns="http://www.w3.org/2000/svg">
<path d="M0 7.49611C0 7.76262 0.096 8.00247 0.288 8.21568L6.288 14.2122C6.48 14.4041 6.71467 14.5 6.992 14.5C7.26933 14.5 7.504 14.4041 7.696 14.2122C7.888 14.0203 7.98667 13.7858 7.992 13.5086C7.99733 13.2314 7.89867 12.9916 7.696 12.789L2.4 7.49611L7.696 2.2192C7.89867 2.01665 8 1.77946 8 1.50762C8 1.23577 7.89867 0.99858 7.696 0.796032C7.49333 0.593484 7.256 0.494875 6.984 0.500205C6.712 0.505535 6.48 0.604144 6.288 0.796032L0.288 6.79252C0.096 6.98441 0 7.21893 0 7.49611Z" fill="#8B9F57"/>
</svg>
