<svg width="16" height="15" viewBox="0 0 16 15" fill="none" xmlns="http://www.w3.org/2000/svg">
<g clip-path="url(#clip0_219_11530)">
<path d="M15.3417 11.0085L13.2484 8.91519C12.5008 8.16759 11.2299 8.46666 10.9309 9.43852C10.7066 10.1114 9.95898 10.4852 9.28613 10.3356C7.79092 9.96184 5.77239 8.01807 5.39859 6.4481C5.17431 5.77522 5.62287 5.02762 6.29571 4.80336C7.2676 4.50432 7.56664 3.23339 6.81904 2.48579L4.72574 0.392493C4.12766 -0.130831 3.23053 -0.130831 2.70721 0.392493L1.28676 1.81294C-0.133692 3.30815 1.43628 7.27046 4.95002 10.7842C8.46377 14.298 12.4261 15.9427 13.9213 14.4475L15.3417 13.027C15.8651 12.4289 15.8651 11.5318 15.3417 11.0085Z" fill="white"/>
</g>
<defs>
<clipPath id="clip0_219_11530">
<rect width="15" height="15" fill="white" transform="translate(0.75)"/>
</clipPath>
</defs>
</svg>
