<svg width="15" height="16" viewBox="0 0 15 16" fill="none" xmlns="http://www.w3.org/2000/svg">
<g clip-path="url(#clip0_196_4788)">
<path d="M14.5917 11.5085L12.4984 9.41519C11.7508 8.66759 10.4799 8.96666 10.1809 9.93852C9.95658 10.6114 9.20898 10.9852 8.53613 10.8356C7.04092 10.4618 5.02239 8.51807 4.64859 6.9481C4.42431 6.27522 4.87287 5.52762 5.54571 5.30336C6.5176 5.00432 6.81664 3.73339 6.06904 2.98579L3.97574 0.892493C3.37766 0.369169 2.48053 0.369169 1.95721 0.892493L0.536758 2.31294C-0.883692 3.80815 0.68628 7.77046 4.20002 11.2842C7.71377 14.798 11.6761 16.4427 13.1713 14.9475L14.5917 13.527C15.1151 12.9289 15.1151 12.0318 14.5917 11.5085Z" fill="#16110C"/>
</g>
<defs>
<clipPath id="clip0_196_4788">
<rect width="15" height="15" fill="white" transform="translate(0 0.5)"/>
</clipPath>
</defs>
</svg>
