<svg width="20" height="20" viewBox="0 0 20 20" fill="none" xmlns="http://www.w3.org/2000/svg">
<path d="M9.82836 12.5C11.1855 12.5 12.2856 11.3807 12.2856 10C12.2856 8.61929 11.1855 7.5 9.82836 7.5C8.47125 7.5 7.37109 8.61929 7.37109 10C7.37109 11.3807 8.47125 12.5 9.82836 12.5Z" fill="#8B9F57"/>
<path d="M16.3842 3.33334H13.7877L12.772 2.20834C12.6194 2.03783 12.4335 1.90159 12.2261 1.80833C12.0188 1.71506 11.7947 1.66681 11.568 1.66667H8.09504C7.63635 1.66667 7.19404 1.86667 6.88279 2.20834L5.87531 3.33334H3.2788C2.3778 3.33334 1.64062 4.08334 1.64062 5V15C1.64062 15.9167 2.3778 16.6667 3.2788 16.6667H16.3842C17.2852 16.6667 18.0224 15.9167 18.0224 15V5C18.0224 4.08334 17.2852 3.33334 16.3842 3.33334ZM9.83151 14.1667C7.57082 14.1667 5.73607 12.3 5.73607 10C5.73607 7.7 7.57082 5.83334 9.83151 5.83334C12.0922 5.83334 13.9269 7.7 13.9269 10C13.9269 12.3 12.0922 14.1667 9.83151 14.1667Z" fill="#8B9F57"/>
</svg>
