<svg width="20" height="20" viewBox="0 0 20 20" fill="none" xmlns="http://www.w3.org/2000/svg">
<path d="M13.1342 6.528C12.9642 6.104 13.6442 5.848 13.8142 6.294C14.0482 6.954 15.2602 6.976 15.2602 6.252C15.2602 5.912 14.4602 5.784 14.1542 5.72C13.6442 5.614 13.1342 5.168 13.1342 4.614C13.1393 4.34551 13.2343 4.08648 13.404 3.87835C13.5737 3.67023 13.8083 3.52503 14.0702 3.466C14.104 3.45308 14.1326 3.42948 14.1518 3.39879C14.1709 3.36811 14.1795 3.33201 14.1762 3.296V3C14.183 2.9089 14.224 2.82373 14.291 2.76158C14.3579 2.69943 14.4459 2.66489 14.5372 2.66489C14.6286 2.66489 14.7166 2.69943 14.7835 2.76158C14.8505 2.82373 14.8915 2.9089 14.8982 3V3.34C14.9012 3.3747 14.9123 3.40821 14.9308 3.43777C14.9492 3.46732 14.9744 3.49208 15.0042 3.51C15.2118 3.5904 15.4003 3.71321 15.5576 3.87059C15.715 4.02797 15.8378 4.21646 15.9182 4.424C15.944 4.51276 15.9346 4.60803 15.8921 4.69008C15.8495 4.77212 15.777 4.83466 15.6896 4.86473C15.6022 4.89481 15.5066 4.89012 15.4226 4.85163C15.3386 4.81315 15.2726 4.74382 15.2382 4.658C15.1953 4.53997 15.1252 4.4337 15.0336 4.34779C14.942 4.26188 14.8315 4.19874 14.7109 4.1635C14.5904 4.12825 14.4632 4.12188 14.3398 4.1449C14.2163 4.16792 14.1 4.21968 14.0002 4.296C13.6002 4.614 14.0002 4.934 14.3402 5.018C15.0422 5.19 15.9762 5.316 15.9762 6.252C15.9821 6.53217 15.8897 6.80556 15.7151 7.02474C15.5405 7.24392 15.2946 7.39508 15.0202 7.452C14.9851 7.46542 14.9544 7.48849 14.9318 7.51856C14.9091 7.54864 14.8954 7.58449 14.8922 7.622V7.918C14.8855 8.0091 14.8445 8.09427 14.7775 8.15642C14.7106 8.21857 14.6226 8.25311 14.5312 8.25311C14.4399 8.25311 14.3519 8.21857 14.285 8.15642C14.218 8.09427 14.177 8.0091 14.1702 7.918V7.528C14.1702 7.486 14.1482 7.444 14.1062 7.444C13.8836 7.37716 13.6794 7.25968 13.5097 7.10077C13.3401 6.94185 13.2095 6.74581 13.1282 6.528H13.1342ZM10.8402 8.144L10.4782 8.294C10.4431 8.30002 10.4111 8.31806 10.3877 8.34506C10.3644 8.37205 10.3511 8.40632 10.3502 8.442V17.884C10.35 17.9141 10.3577 17.9436 10.3726 17.9697C10.3876 17.9958 10.4091 18.0175 10.4351 18.0325C10.4612 18.0476 10.4907 18.0555 10.5208 18.0554C10.5508 18.0553 10.5803 18.0472 10.6062 18.032L18.0862 14.588C18.1455 14.564 18.1963 14.5228 18.2319 14.4697C18.2676 14.4166 18.2865 14.354 18.2862 14.29V8.932C18.293 8.8409 18.334 8.75573 18.401 8.69358C18.4679 8.63143 18.5559 8.59689 18.6472 8.59689C18.7386 8.59689 18.8266 8.63143 18.8935 8.69358C18.9605 8.75573 19.0015 8.8409 19.0082 8.932V14.29C19.0087 14.4918 18.9508 14.6894 18.8415 14.859C18.7322 15.0287 18.5762 15.163 18.3922 15.246L10.4362 18.904C10.2996 18.9672 10.1508 19 10.0002 19C9.84966 19 9.70089 18.9672 9.56424 18.904L1.61624 15.246C1.43229 15.163 1.27626 15.0287 1.16696 14.859C1.05766 14.6894 0.999761 14.4918 1.00024 14.29V5.146C0.995601 4.93202 1.05892 4.72208 1.18111 4.54636C1.30329 4.37063 1.47804 4.23817 1.68024 4.168L9.62824 1.086C9.74498 1.03258 9.87186 1.00493 10.0002 1.00493C10.1286 1.00493 10.2555 1.03258 10.3722 1.086L10.8002 1.234C11.2482 1.404 10.9702 2.084 10.5462 1.914L10.1202 1.744C10.0445 1.722 9.96401 1.722 9.88824 1.744L2.66224 4.544C2.62906 4.55532 2.60025 4.57674 2.57985 4.60525C2.55945 4.63376 2.54849 4.66794 2.54849 4.703C2.54849 4.73806 2.55945 4.77224 2.57985 4.80075C2.60025 4.82926 2.62906 4.85068 2.66224 4.862L4.02224 5.372C4.0459 5.38458 4.0729 5.38941 4.09946 5.38582C4.12601 5.38223 4.15077 5.37041 4.17024 5.352C4.2505 5.29987 4.33637 5.25693 4.42624 5.224L11.0522 2.658C11.0742 2.638 11.0942 2.638 11.1162 2.594C11.5379 2.09715 12.062 1.69743 12.6527 1.42228C13.2434 1.14714 13.8866 1.00308 14.5382 1C15.1312 0.987436 15.7207 1.09338 16.2722 1.31162C16.8238 1.52986 17.3261 1.856 17.75 2.27093C18.1738 2.68586 18.5105 3.18123 18.7404 3.72798C18.9702 4.27474 19.0886 4.86189 19.0886 5.455C19.0886 6.04812 18.9702 6.63526 18.7404 7.18202C18.5105 7.72878 18.1738 8.22414 17.75 8.63907C17.3261 9.054 16.8238 9.38014 16.2722 9.59838C15.7207 9.81662 15.1312 9.92257 14.5382 9.91C13.8629 9.90543 13.1971 9.74944 12.59 9.4535C11.9829 9.15756 11.4499 8.72921 11.0302 8.2C11.0094 8.17057 10.9798 8.14851 10.9457 8.13701C10.9115 8.12551 10.8746 8.12515 10.8402 8.136V8.144ZM9.52224 8.294L6.97224 7.294C6.9454 7.28463 6.9167 7.28189 6.88857 7.28603C6.86045 7.29017 6.83375 7.30106 6.81075 7.31776C6.78775 7.33447 6.76914 7.3565 6.75652 7.38197C6.74389 7.40743 6.73762 7.43558 6.73824 7.464V10.08C6.73787 10.1941 6.70987 10.3064 6.65663 10.4073C6.60339 10.5081 6.52649 10.5946 6.43252 10.6593C6.33855 10.724 6.23031 10.7649 6.11706 10.7786C6.00381 10.7923 5.88892 10.7784 5.78224 10.738L4.23024 10.122C4.09478 10.0726 3.97751 9.98325 3.89394 9.86576C3.81038 9.74826 3.76445 9.60817 3.76224 9.464V6.188C3.76454 6.15214 3.75555 6.11647 3.73654 6.08598C3.71753 6.05549 3.68945 6.03171 3.65624 6.018L1.95624 5.36C1.9294 5.35063 1.9007 5.34789 1.87257 5.35203C1.84445 5.35617 1.81775 5.36706 1.79475 5.38376C1.77175 5.40047 1.75314 5.4225 1.74052 5.44797C1.72789 5.47344 1.72162 5.50158 1.72224 5.53V14.29C1.72197 14.354 1.74088 14.4166 1.77653 14.4697C1.81218 14.5228 1.86293 14.564 1.92224 14.588L9.40024 18.032C9.42634 18.046 9.45558 18.053 9.48519 18.0526C9.51479 18.0521 9.54378 18.044 9.56941 18.0292C9.59504 18.0144 9.61647 17.9933 9.63166 17.9679C9.64686 17.9425 9.65532 17.9136 9.65624 17.884V8.442C9.65536 8.40632 9.64211 8.37205 9.61876 8.34506C9.59542 8.31806 9.56342 8.30002 9.52824 8.294H9.52224ZM7.65224 6.8L9.88424 7.65C9.96027 7.67009 10.0402 7.67009 10.1162 7.65L10.4002 7.55C10.4232 7.54251 10.4444 7.53032 10.4624 7.5142C10.4804 7.49807 10.4948 7.47838 10.5048 7.45636C10.5148 7.43435 10.5201 7.4105 10.5203 7.38633C10.5206 7.36217 10.5158 7.33821 10.5062 7.316C10.2407 6.73551 10.1042 6.10434 10.1062 5.466C10.1089 4.9748 10.1879 4.48699 10.3402 4.02C10.3517 3.98927 10.3545 3.95597 10.3483 3.92376C10.342 3.89155 10.327 3.86169 10.3049 3.83748C10.2827 3.81327 10.2543 3.79564 10.2228 3.78656C10.1913 3.77748 10.1579 3.77728 10.1262 3.786L4.69824 5.89C4.6357 5.9105 4.58137 5.9505 4.54322 6.00413C4.50507 6.05776 4.4851 6.1222 4.48624 6.188V9.356C4.48665 9.38879 4.497 9.42069 4.51593 9.44747C4.53485 9.47426 4.56146 9.49467 4.59224 9.506L5.78224 9.974C5.8094 9.9846 5.8388 9.98813 5.8677 9.98425C5.89659 9.98036 5.92403 9.9692 5.94742 9.9518C5.97082 9.93441 5.98941 9.91135 6.00145 9.88479C6.01348 9.85824 6.01857 9.82906 6.01624 9.8V7.06C6.01519 6.84683 6.07993 6.63852 6.20163 6.4635C6.32332 6.28847 6.49604 6.15525 6.69624 6.082L8.97024 5.2C9.01489 5.18332 9.06238 5.1756 9.11002 5.17728C9.15765 5.17896 9.20449 5.19 9.24785 5.20978C9.29122 5.22956 9.33026 5.25769 9.36276 5.29256C9.39525 5.32742 9.42056 5.36835 9.43724 5.413C9.45392 5.45765 9.46164 5.50515 9.45996 5.55278C9.45828 5.60041 9.44724 5.64725 9.42746 5.69061C9.40768 5.73398 9.37955 5.77302 9.34468 5.80552C9.30981 5.83801 9.26889 5.86332 9.22424 5.88L7.65224 6.48C7.61876 6.49433 7.59022 6.51817 7.57016 6.54857C7.55011 6.57897 7.53942 6.61458 7.53942 6.651C7.53942 6.68742 7.55011 6.72304 7.57016 6.75343C7.59022 6.78383 7.61876 6.80767 7.65224 6.822V6.8ZM16.8002 12.844C16.8904 12.8103 16.9903 12.8138 17.0779 12.8538C17.1654 12.8937 17.2336 12.9668 17.2672 13.057C17.3009 13.1472 17.2974 13.247 17.2575 13.3346C17.2175 13.4222 17.1444 13.4903 17.0542 13.524L14.1762 14.63C14.089 14.6666 13.9908 14.667 13.9032 14.6312C13.8156 14.5954 13.7458 14.5263 13.7092 14.439C13.6726 14.3517 13.6722 14.2535 13.708 14.1659C13.7438 14.0784 13.813 14.0086 13.9002 13.972L16.8002 12.844ZM10.8182 5.466C10.8182 6.45526 11.2112 7.404 11.9107 8.10351C12.6102 8.80302 13.559 9.196 14.5482 9.196C15.5375 9.196 16.4862 8.80302 17.1857 8.10351C17.8853 7.404 18.2782 6.45526 18.2782 5.466C18.2782 4.97617 18.1818 4.49114 17.9943 4.03859C17.8069 3.58605 17.5321 3.17485 17.1857 2.82849C16.8394 2.48213 16.4282 2.20738 15.9756 2.01993C15.5231 1.83248 15.0381 1.736 14.5482 1.736C14.0584 1.736 13.5734 1.83248 13.1208 2.01993C12.6683 2.20738 12.2571 2.48213 11.9107 2.82849C11.5644 3.17485 11.2896 3.58605 11.1022 4.03859C10.9147 4.49114 10.8182 4.97617 10.8182 5.466Z" fill="black"/>
</svg>
