<svg width="21" height="20" viewBox="0 0 21 20" fill="none" xmlns="http://www.w3.org/2000/svg">
<path d="M15.1309 8.54297C15.1309 5.85547 12.9434 3.67188 10.2598 3.67188C7.57617 3.67188 5.38867 5.85547 5.38867 8.54297C5.38867 11.2266 7.57227 13.4141 10.2598 13.4141C12.9473 13.4141 15.1309 11.2266 15.1309 8.54297ZM10.2598 12.7852C7.91992 12.7852 6.01367 10.8828 6.01367 8.53906C6.01367 6.19531 7.91992 4.29688 10.2598 4.29688C12.5996 4.29688 14.5059 6.19922 14.5059 8.54297C14.5059 10.8867 12.5996 12.7852 10.2598 12.7852Z" fill="black"/>
<path d="M16.2285 13.582C16.4043 13.4922 16.5605 13.375 16.6816 13.2109C16.998 12.7773 16.9238 12.2109 16.8535 11.6602C16.8066 11.3047 16.7598 10.9336 16.8418 10.6836C16.916 10.4492 17.166 10.1875 17.4043 9.9375C17.7754 9.54687 18.1934 9.10547 18.1934 8.54687C18.1934 7.98828 17.7793 7.53906 17.4082 7.14844C17.1699 6.89453 16.9199 6.63672 16.8457 6.40234C16.7637 6.15234 16.8105 5.78125 16.8574 5.42578C16.9277 4.875 16.998 4.30859 16.6855 3.875C16.3691 3.4375 15.8027 3.33203 15.2559 3.22656C14.9043 3.16016 14.541 3.09375 14.334 2.94141C14.127 2.79297 13.9551 2.47266 13.7871 2.16016C13.5332 1.69141 13.2402 1.16016 12.7207 0.98828C12.2207 0.824218 11.709 1.06641 11.2129 1.30078C10.8809 1.45703 10.541 1.61719 10.2676 1.61719C9.99414 1.61719 9.6543 1.45703 9.32227 1.30078C8.82617 1.06641 8.31445 0.824218 7.81445 0.98828C7.29102 1.15625 7.01758 1.66797 6.74805 2.16016C6.58008 2.46875 6.4043 2.79297 6.20117 2.94141C5.99023 3.09375 5.63086 3.16406 5.2793 3.22656C4.73242 3.32812 4.16602 3.4375 3.84961 3.875C3.5332 4.30859 3.60742 4.875 3.67773 5.42578C3.72461 5.78125 3.77148 6.15234 3.68945 6.40234C3.61523 6.63672 3.36523 6.89844 3.12695 7.14844C2.75586 7.53906 2.33789 7.98047 2.33789 8.53906C2.33789 9.09766 2.75977 9.53906 3.12695 9.92969C3.36523 10.1836 3.61523 10.4414 3.68945 10.6758C3.77148 10.9258 3.72461 11.2969 3.67773 11.6523C3.60742 12.2031 3.53711 12.7695 3.84961 13.2031C3.9707 13.3672 4.12695 13.4883 4.30273 13.5742L2.59961 16.5234C2.53711 16.6328 2.54492 16.7695 2.62305 16.8711C2.70117 16.9727 2.83008 17.0156 2.95117 16.9844L5.4668 16.3086L6.14258 18.8242C6.17383 18.9453 6.2793 19.0352 6.4043 19.0547C6.41992 19.0547 6.43164 19.0586 6.44336 19.0586C6.55273 19.0586 6.6582 19 6.71289 18.9023L8.31055 16.1328C8.65039 16.0937 8.99414 15.9336 9.32617 15.7773C9.6582 15.6211 9.99805 15.4609 10.2715 15.4609C10.5449 15.4609 10.8848 15.6211 11.2168 15.7773C11.5488 15.9336 11.8926 16.0977 12.2324 16.1328L13.8301 18.9023C13.8848 19 13.9902 19.0586 14.0996 19.0586C14.1113 19.0586 14.127 19.0586 14.1387 19.0547C14.2637 19.0391 14.3652 18.9492 14.4004 18.8242L15.0762 16.3086L17.5918 16.9844C17.7129 17.0156 17.8418 16.9727 17.9199 16.8711C17.998 16.7695 18.0059 16.6328 17.9434 16.5234L16.2285 13.582ZM6.53711 17.9414L5.97852 15.8516C5.93555 15.6836 5.76367 15.5859 5.5957 15.6289L3.50586 16.1875L4.89648 13.7773C5.01758 13.8047 5.14258 13.8281 5.26758 13.8516C5.61914 13.918 5.98242 13.9844 6.18945 14.1367C6.39648 14.2852 6.56836 14.6055 6.73633 14.918C6.96289 15.3359 7.2168 15.8008 7.63867 16.0195L6.53711 17.9414ZM10.2598 14.8398C9.8457 14.8398 9.43945 15.0312 9.04883 15.2148C8.66211 15.3984 8.26367 15.5859 8.00195 15.5C7.7168 15.4062 7.50195 15.0078 7.29102 14.625C7.08789 14.2539 6.88086 13.8711 6.56055 13.6367C6.23633 13.4023 5.80273 13.3203 5.38477 13.2422C4.95898 13.1602 4.51758 13.0781 4.3418 12.8437C4.17383 12.6133 4.22852 12.168 4.2832 11.7422C4.33789 11.3164 4.39258 10.8789 4.26758 10.4922C4.14648 10.125 3.84961 9.80859 3.56445 9.50781C3.25977 9.1875 2.94336 8.85547 2.94336 8.54687C2.94336 8.23828 3.25977 7.90625 3.56445 7.58594C3.85352 7.28125 4.15039 6.96875 4.26758 6.60156C4.39258 6.21484 4.33789 5.77734 4.2832 5.35156C4.22852 4.92187 4.17383 4.48047 4.3418 4.25C4.51367 4.01172 4.95508 3.92969 5.38477 3.85156C5.80273 3.77344 6.23633 3.69141 6.56055 3.45703C6.88086 3.22656 7.08789 2.83984 7.29102 2.46875C7.50195 2.08203 7.7168 1.6875 8.00195 1.59375C8.26758 1.50781 8.66602 1.69531 9.04883 1.87891C9.43945 2.0625 9.8457 2.25391 10.2598 2.25391C10.6738 2.25391 11.0801 2.0625 11.4707 1.87891C11.8574 1.69531 12.2559 1.50781 12.5176 1.59375C12.8027 1.6875 13.0176 2.08594 13.2285 2.46875C13.4316 2.83984 13.6387 3.22266 13.959 3.45703C14.2832 3.69141 14.7168 3.77344 15.1348 3.85156C15.5605 3.93359 16.002 4.01562 16.1777 4.25C16.3457 4.48047 16.291 4.92578 16.2363 5.35156C16.1816 5.77734 16.127 6.21484 16.252 6.60156C16.373 6.96875 16.6699 7.28516 16.9551 7.58594C17.2598 7.90625 17.5762 8.23828 17.5762 8.54687C17.5762 8.85547 17.2598 9.1875 16.9551 9.50781C16.666 9.8125 16.3691 10.125 16.252 10.4922C16.127 10.8789 16.1816 11.3164 16.2363 11.7422C16.291 12.1719 16.3457 12.6133 16.1777 12.8437C16.0059 13.082 15.5645 13.1641 15.1348 13.2422C14.7168 13.3203 14.2832 13.4023 13.959 13.6367C13.6387 13.8672 13.4316 14.2539 13.2285 14.625C13.0176 15.0117 12.8027 15.4062 12.5176 15.5C12.252 15.5859 11.8535 15.3984 11.4707 15.2148C11.0801 15.0312 10.6738 14.8398 10.2598 14.8398ZM14.9238 15.6289C14.7559 15.5859 14.584 15.6836 14.541 15.8516L13.9824 17.9414L12.877 16.0273C13.2949 15.8125 13.541 15.3633 13.7793 14.9258C13.9473 14.6172 14.123 14.293 14.3262 14.1445C14.5371 13.9922 14.8965 13.9219 15.248 13.8594C15.373 13.8359 15.498 13.8125 15.6191 13.7852L17.0098 16.1953L14.9238 15.6289Z" fill="black"/>
<path d="M13.1895 6.62891C13.0684 6.50781 12.8691 6.50781 12.748 6.62891L9.58398 9.79297L7.77539 7.98437C7.6543 7.86328 7.45508 7.86328 7.33398 7.98437C7.21289 8.10547 7.21289 8.30469 7.33398 8.42578L9.36523 10.457C9.42383 10.5156 9.50195 10.5469 9.58789 10.5469C9.67383 10.5469 9.75195 10.5156 9.81055 10.457L13.1895 7.07031C13.3105 6.94922 13.3105 6.75 13.1895 6.62891Z" fill="black"/>
</svg>
