<svg width="21" height="20" viewBox="0 0 21 20" fill="none" xmlns="http://www.w3.org/2000/svg">
<g clip-path="url(#clip0_1395_2385)">
<path d="M20.4998 14.2858C20.386 13.1148 19.7864 12.0491 18.8114 11.2849C18.4354 10.9902 18.0084 10.7438 17.5375 10.5477V5.26773C17.5375 5.21288 17.5231 5.15899 17.4956 5.11148C17.4682 5.06398 17.4288 5.02453 17.3813 4.99711L9.18476 0.264882C9.13726 0.237454 9.08337 0.223015 9.02851 0.223015C8.97366 0.223015 8.91977 0.237454 8.87226 0.264882L0.675781 4.99711C0.628271 5.02453 0.588818 5.06398 0.56139 5.11148C0.533962 5.15899 0.519525 5.21288 0.519531 5.26773V14.7322C0.519525 14.7871 0.533962 14.841 0.56139 14.8885C0.588818 14.936 0.628271 14.9754 0.675781 15.0029L8.87226 19.7351C8.91977 19.7625 8.97366 19.7769 9.02851 19.7769C9.08337 19.7769 9.13726 19.7625 9.18476 19.7351L17.3813 15.0029C17.4444 14.9662 17.4927 14.9086 17.5177 14.84C17.7309 15.1151 17.8786 15.4235 17.9483 15.7485C18.206 16.9492 17.4295 18.1166 15.9217 18.795C15.8565 18.8244 15.8034 18.8752 15.7711 18.9389C15.7389 19.0027 15.7295 19.0756 15.7444 19.1455C15.7594 19.2153 15.7979 19.278 15.8534 19.3229C15.909 19.3679 15.9782 19.3925 16.0497 19.3925C16.0696 19.3925 16.0898 19.3906 16.1101 19.3866C17.5567 19.1028 18.7407 18.4298 19.534 17.4405C20.2659 16.5279 20.6088 15.4076 20.4998 14.2858ZM9.02851 9.63914L6.74375 8.32004L14.3152 3.94863L16.6 5.26773L9.02851 9.63914ZM4.36676 6.94769L11.9382 2.57629L13.6902 3.58781L6.11875 7.95922L4.36676 6.94769ZM5.80629 8.50047L5.80625 11.5057L4.0543 10.4942L4.05426 7.48894L5.80629 8.50047ZM9.02851 0.896366L11.3132 2.21547L3.74176 6.58684L1.45703 5.26773L9.02851 0.896366ZM1.14453 5.80902L3.42926 7.12812L3.4293 10.6746C3.42929 10.7295 3.44373 10.7834 3.47116 10.8309C3.49858 10.8784 3.53804 10.9179 3.58555 10.9453L5.9625 12.3176C6.01001 12.345 6.06389 12.3594 6.11875 12.3594C6.1736 12.3594 6.22749 12.345 6.275 12.3176C6.3225 12.2902 6.36195 12.2507 6.38938 12.2032C6.41681 12.1557 6.43125 12.1018 6.43125 12.047L6.43129 8.86133L8.71601 10.1804V18.9232L1.14453 14.5518V5.80902ZM9.34101 18.9232V10.1804L16.9125 5.80902V10.3245C16.2625 10.1285 15.5452 10.0163 14.7745 9.99258V8.98191C14.7745 8.92245 14.7576 8.86422 14.7256 8.81405C14.6937 8.76389 14.6481 8.72387 14.5943 8.69871C14.5404 8.67354 14.4804 8.66427 14.4215 8.67199C14.3625 8.67971 14.307 8.70409 14.2614 8.74226L10.6486 11.7661C10.6122 11.7965 10.5833 11.8348 10.564 11.878C10.5446 11.9213 10.5353 11.9684 10.5368 12.0157C10.5384 12.0631 10.5506 12.1095 10.5727 12.1514C10.5948 12.1933 10.6261 12.2297 10.6643 12.2577L14.2771 14.9083C14.3237 14.9425 14.3788 14.9631 14.4364 14.9678C14.494 14.9726 14.5517 14.9613 14.6033 14.9352C14.6548 14.9091 14.6981 14.8692 14.7283 14.82C14.7586 14.7707 14.7745 14.7141 14.7745 14.6563V13.6057C15.6021 13.6502 16.329 13.8728 16.8916 14.2562C16.8987 14.2611 16.9055 14.2663 16.9125 14.2712V14.5518L9.34101 18.9232ZM17.978 18.0046C18.0543 17.9051 18.125 17.8013 18.1898 17.6938C18.5829 17.0404 18.7107 16.3224 18.5594 15.6173C18.4004 14.8766 17.9331 14.2098 17.2436 13.7398C16.507 13.2377 15.5452 12.9723 14.462 12.9723C14.3791 12.9723 14.2996 13.0053 14.241 13.0639C14.1824 13.1225 14.1495 13.202 14.1495 13.2848V14.0394L11.3554 11.9895L14.1495 9.6509V10.3002C14.1495 10.3831 14.1824 10.4626 14.241 10.5212C14.2996 10.5798 14.3791 10.6127 14.462 10.6127C18.1916 10.6127 19.7104 12.6239 19.8778 14.3462C20.0004 15.6083 19.4256 17.0787 17.978 18.0046Z" fill="#16110C"/>
</g>
<defs>
<clipPath id="clip0_1395_2385">
<rect width="20" height="20" fill="white" transform="translate(0.519531)"/>
</clipPath>
</defs>
</svg>
