<svg width="16" height="15" viewBox="0 0 16 15" fill="none" xmlns="http://www.w3.org/2000/svg">
<g clip-path="url(#clip0_1253_20368)">
<path d="M11.9585 6.79999C11.6267 6.79999 11.3586 7.06884 11.3586 7.39995V12.2C11.3586 12.5306 11.0897 12.7999 10.7586 12.7999H2.35859C2.02736 12.7999 1.75863 12.5306 1.75863 12.2V3.79996C1.75863 3.46938 2.02736 3.2 2.35859 3.2H7.15861C7.4904 3.2 7.75857 2.93119 7.75857 2.60004C7.75857 2.26882 7.4904 1.99997 7.15861 1.99997H2.35859C1.3662 1.99997 0.558594 2.80758 0.558594 3.79996V12.2C0.558594 13.1924 1.3662 14 2.35859 14H10.7586C11.751 14 12.5586 13.1924 12.5586 12.2V7.39995C12.5586 7.06819 12.2903 6.79999 11.9585 6.79999Z" fill="#16110C"/>
<path d="M6.05499 6.44781C6.01457 6.48841 5.98689 6.53992 5.97534 6.59604L5.56425 8.65232C5.54509 8.74761 5.57532 8.84588 5.6439 8.91509C5.67096 8.94207 5.70307 8.96345 5.7384 8.97801C5.77373 8.99258 5.81158 9.00004 5.8498 8.99997C5.86833 8.99997 5.8876 8.99825 5.90676 8.99422L7.96231 8.58311C8.01928 8.57139 8.07102 8.54413 8.11116 8.50336L12.7119 3.90248L10.6563 1.84696L6.05499 6.44781ZM14.1329 0.425214C13.5661 -0.141779 12.6438 -0.141779 12.0774 0.425214L11.2726 1.22995L13.3282 3.28558L14.1329 2.48074C14.4074 2.20688 14.5586 1.84165 14.5586 1.45322C14.5586 1.0648 14.4074 0.699593 14.1329 0.425214Z" fill="#16110C"/>
</g>
<defs>
<clipPath id="clip0_1253_20368">
<rect width="15" height="15" fill="white" transform="translate(0.558594)"/>
</clipPath>
</defs>
</svg>
