<svg width="16" height="15" viewBox="0 0 16 15" fill="none" xmlns="http://www.w3.org/2000/svg">
<g clip-path="url(#clip0_484_13572)">
<path d="M15.5779 14.1839L11.7051 10.3731C12.7193 9.27122 13.3424 7.81401 13.3424 6.21051C13.3419 2.78032 10.5166 0 7.03107 0C3.54556 0 0.720215 2.78032 0.720215 6.21051C0.720215 9.6407 3.54556 12.421 7.03107 12.421C8.53705 12.421 9.9183 11.9001 11.0033 11.0341L14.891 14.86C15.0805 15.0466 15.388 15.0466 15.5774 14.86C15.6225 14.816 15.6583 14.7635 15.6828 14.7054C15.7072 14.6474 15.7199 14.5851 15.7199 14.5221C15.72 14.4591 15.7074 14.3967 15.683 14.3387C15.6586 14.2806 15.6229 14.228 15.5779 14.1839ZM7.03107 11.4655C4.08195 11.4655 1.69123 9.11277 1.69123 6.21051C1.69123 3.30825 4.08195 0.955524 7.03107 0.955524C9.98021 0.955524 12.3709 3.30825 12.3709 6.21051C12.3709 9.11277 9.98021 11.4655 7.03107 11.4655Z" fill="#16110C"/>
</g>
<defs>
<clipPath id="clip0_484_13572">
<rect width="14.9997" height="15" fill="white" transform="translate(0.720215)"/>
</clipPath>
</defs>
</svg>
