<svg width="67" height="67" viewBox="0 0 67 67" fill="none" xmlns="http://www.w3.org/2000/svg">
<path d="M62.8125 0H4.1875C3.07083 0 2.09375 0.40712 1.25625 1.22135C0.41875 2.03559 0 3.00104 0 4.11771V40.549C0 41.7122 0.407118 42.7009 1.22135 43.5151C2.03559 44.3293 3.02431 44.7365 4.1875 44.7365H62.8125C63.9757 44.7365 64.9644 44.3177 65.7786 43.4802C66.5929 42.6427 67 41.6656 67 40.549V4.11771C67 2.95451 66.5813 1.97743 65.7438 1.18645C64.9062 0.395485 63.9292 0 62.8125 0ZM2.79167 4.39687L22.5427 20.5187L2.79167 39.9208V4.39687ZM34.3375 25.1948C34.1049 25.3809 33.8257 25.474 33.5 25.474C33.1743 25.474 32.8951 25.3809 32.6625 25.1948L5.23438 2.79166H61.7656L34.3375 25.1948ZM24.776 22.3333L30.9177 27.3583C31.6622 27.9632 32.5345 28.2656 33.5349 28.2656C34.5352 28.2656 35.4076 27.9632 36.1521 27.3583L42.2938 22.3333L62.2542 41.9448H4.74583L24.776 22.3333ZM44.4573 20.5187L64.2083 4.39687V39.9208L44.4573 20.5187ZM10.8177 54.5771V49.901C10.8177 49.5288 10.6781 49.2031 10.399 48.924C10.1198 48.6448 9.7941 48.5052 9.42188 48.5052C9.04965 48.5052 8.72396 48.6448 8.44479 48.924C8.16562 49.2031 8.02604 49.5288 8.02604 49.901V54.5771C8.02604 54.9493 8.16562 55.275 8.44479 55.5542C8.72396 55.8333 9.04965 55.9729 9.42188 55.9729C9.7941 55.9729 10.1198 55.8333 10.399 55.5542C10.6781 55.275 10.8177 54.9493 10.8177 54.5771ZM22.8917 57.299V49.901C22.8917 49.5288 22.7521 49.2031 22.4729 48.924C22.1938 48.6448 21.8564 48.5052 21.4609 48.5052C21.0655 48.5052 20.7398 48.6448 20.4839 48.924C20.228 49.2031 20.1 49.5288 20.1 49.901V57.299C20.1 57.6712 20.228 57.9969 20.4839 58.276C20.7398 58.5552 21.0655 58.6948 21.4609 58.6948C21.8564 58.6948 22.1938 58.5552 22.4729 58.276C22.7521 57.9969 22.8917 57.6712 22.8917 57.299ZM34.8958 60.0906V49.901C34.8958 49.5288 34.7562 49.2031 34.4771 48.924C34.1979 48.6448 33.8722 48.5052 33.5 48.5052C33.1278 48.5052 32.8021 48.6448 32.5229 48.924C32.2438 49.2031 32.1042 49.5288 32.1042 49.901V60.0906C32.1042 60.4628 32.2438 60.7885 32.5229 61.0677C32.8021 61.3469 33.1278 61.4865 33.5 61.4865C33.8722 61.4865 34.1979 61.3469 34.4771 61.0677C34.7562 60.7885 34.8958 60.4628 34.8958 60.0906ZM46.9698 62.8125V49.901C46.9698 49.5288 46.8302 49.2031 46.551 48.924C46.2719 48.6448 45.9462 48.5052 45.574 48.5052C45.2017 48.5052 44.876 48.6448 44.5969 48.924C44.3177 49.2031 44.1781 49.5288 44.1781 49.901V62.8125C44.1781 63.1847 44.3061 63.5104 44.562 63.7896C44.8179 64.0687 45.1552 64.2083 45.574 64.2083C45.9927 64.2083 46.33 64.0687 46.5859 63.7896C46.8418 63.5104 46.9698 63.1847 46.9698 62.8125ZM57.5781 48.5052C57.2059 48.5052 56.8802 48.6448 56.601 48.924C56.3219 49.2031 56.1823 49.5288 56.1823 49.901V65.6042C56.1823 65.9764 56.3219 66.3021 56.601 66.5813C56.8802 66.8604 57.2059 67 57.5781 67C57.9503 67 58.276 66.8604 58.5552 66.5813C58.8344 66.3021 58.974 65.9764 58.974 65.6042V49.901C58.974 49.5288 58.8344 49.2031 58.5552 48.924C58.276 48.6448 57.9503 48.5052 57.5781 48.5052Z" fill="#8B9F57"/>
</svg>
