<svg width="16" height="15" viewBox="0 0 16 15" fill="none" xmlns="http://www.w3.org/2000/svg">
<path d="M14.6808 6.44528L11.7609 9.29153L12.4504 13.3115C12.4652 13.3977 12.4556 13.4864 12.4226 13.5674C12.3896 13.6484 12.3347 13.7185 12.2639 13.7699C12.1932 13.8214 12.1094 13.8519 12.0222 13.8582C11.935 13.8645 11.8477 13.8463 11.7703 13.8056L8.15998 11.9076L4.55013 13.8051C4.47272 13.8458 4.38547 13.8641 4.29823 13.8578C4.211 13.8515 4.12727 13.8209 4.05651 13.7695C3.98575 13.7181 3.93078 13.6479 3.89781 13.5669C3.86485 13.4859 3.85521 13.3973 3.86998 13.3111L4.55951 9.29106L1.6392 6.44528C1.57651 6.38421 1.53218 6.30681 1.51121 6.22185C1.49024 6.13688 1.49348 6.04775 1.52055 5.96453C1.54763 5.8813 1.59746 5.80732 1.6644 5.75096C1.73135 5.69459 1.81274 5.6581 1.89935 5.6456L5.93482 5.05966L7.73951 1.40247C7.89748 1.08231 8.42248 1.08231 8.58045 1.40247L10.3851 5.05966L14.4206 5.6456C14.507 5.65842 14.5882 5.6951 14.6549 5.75151C14.7216 5.80791 14.7713 5.88181 14.7983 5.96489C14.8253 6.04797 14.8286 6.13694 14.8079 6.22181C14.7871 6.30667 14.7431 6.38406 14.6808 6.44528Z" fill="#FFB800"/>
</svg>
