<svg width="16" height="14" viewBox="0 0 16 14" fill="none" xmlns="http://www.w3.org/2000/svg">
<path d="M0.564993 6.73219L4.02129 8.02219L5.35909 12.3245C5.44469 12.6001 5.78164 12.7019 6.00529 12.5191L7.93189 10.9485C8.03018 10.8684 8.15217 10.8231 8.27889 10.8196C8.40561 10.816 8.52995 10.8545 8.63254 10.9289L12.1074 13.4518C12.3467 13.6257 12.6856 13.4946 12.7456 13.2055L15.2912 0.960944C15.3567 0.645144 15.0464 0.381694 14.7457 0.497994L0.560943 5.97004C0.210893 6.10504 0.213943 6.60064 0.564993 6.73219ZM5.14349 7.33549L11.8984 3.17514C12.0198 3.10059 12.1447 3.26474 12.0404 3.36144L6.46569 8.54344C6.26991 8.72555 6.14334 8.96992 6.10754 9.23489L5.91764 10.6422C5.89249 10.8301 5.62854 10.8487 5.57669 10.6669L4.84634 8.10064C4.76269 7.80794 4.88459 7.49529 5.14349 7.33549Z" fill="#16110C"/>
</svg>
