<svg width="16" height="15" viewBox="0 0 16 15" fill="none" xmlns="http://www.w3.org/2000/svg">
<g clip-path="url(#clip0_196_4814)">
<path d="M7.71268 7.22555C8.70532 7.22555 9.56488 6.8695 10.2672 6.16706C10.9695 5.46475 11.3256 4.60542 11.3256 3.61267C11.3256 2.62021 10.9695 1.76079 10.2671 1.05823C9.56465 0.356014 8.7052 0 7.71268 0C6.7199 0 5.86054 0.356014 5.15824 1.05835C4.45594 1.76068 4.09978 2.62013 4.09978 3.61267C4.09978 4.60542 4.45591 5.46487 5.15836 6.1672C5.86081 6.86942 6.72026 7.22555 7.71268 7.22555ZM14.0343 11.5342C14.014 11.242 13.973 10.9231 13.9127 10.5864C13.8518 10.2472 13.7735 9.92656 13.6796 9.63348C13.5827 9.33055 13.4508 9.03143 13.2879 8.74473C13.1187 8.44719 12.9201 8.18809 12.6971 7.9749C12.464 7.75186 12.1786 7.57254 11.8485 7.4417C11.5197 7.31162 11.1551 7.2457 10.7653 7.2457C10.6121 7.2457 10.4641 7.30852 10.1781 7.49473C9.97477 7.6271 9.77087 7.75855 9.56638 7.88906C9.36988 8.01427 9.10369 8.13158 8.7749 8.23778C8.45413 8.34158 8.12843 8.39422 7.80696 8.39422C7.48552 8.39422 7.15991 8.34158 6.83879 8.23778C6.51037 8.13167 6.24418 8.01439 6.04789 7.88918C5.82026 7.74372 5.6143 7.61098 5.43565 7.49458C5.15001 7.3084 5.0018 7.24556 4.84869 7.24556C4.45866 7.24556 4.0943 7.31159 3.7655 7.44185C3.43568 7.57242 3.15015 7.75175 2.9168 7.97502C2.694 8.18833 2.49522 8.44728 2.3263 8.74473C2.16347 9.0314 2.03163 9.33043 1.93457 9.63359C1.84082 9.92668 1.76245 10.2472 1.70157 10.5864C1.64125 10.9227 1.6003 11.2416 1.58002 11.5346C1.55985 11.8294 1.54986 12.1248 1.55005 12.4203C1.55005 13.2033 1.79896 13.8372 2.28979 14.3047C2.77457 14.766 3.41599 15.0001 4.19602 15.0001H11.4186C12.1986 15.0001 12.8398 14.7662 13.3247 14.3047C13.8157 13.8376 14.0646 13.2036 14.0646 12.4202C14.0645 12.118 14.0543 11.8199 14.0343 11.5342Z" fill="#16110C"/>
</g>
<defs>
<clipPath id="clip0_196_4814">
<rect width="15" height="15" fill="white" transform="translate(0.300049)"/>
</clipPath>
</defs>
</svg>
