<svg width="14" height="15" viewBox="0 0 14 15" fill="none" xmlns="http://www.w3.org/2000/svg">
<path d="M6.66264 7.22556C7.65528 7.22556 8.51473 6.86952 9.21718 6.16707C9.9194 5.46476 10.2755 4.60543 10.2755 3.61268C10.2755 2.62022 9.91951 1.7608 9.21706 1.05823C8.51461 0.356015 7.65516 0 6.66264 0C5.66986 0 4.8105 0.356015 4.1082 1.05835C3.40589 1.76068 3.04973 2.62013 3.04973 3.61268C3.04973 4.60543 3.40586 5.46488 4.10823 6.16721C4.81076 6.86943 5.67021 7.22556 6.66261 7.22556H6.66264ZM4.72985 1.67988C5.26873 1.14096 5.90093 0.879022 6.66264 0.879022C7.42424 0.879022 8.05653 1.14096 8.59553 1.67988C9.13445 2.21888 9.39651 2.85117 9.39651 3.61265C9.39651 4.37437 9.13445 5.00656 8.59553 5.54557C8.05653 6.0846 7.42424 6.34654 6.66264 6.34654C5.90113 6.34654 5.26899 6.08448 4.72985 5.54557C4.19081 5.00668 3.92875 4.3744 3.92875 3.61268C3.92875 2.85117 4.19081 2.21888 4.72985 1.67988ZM12.9842 11.5342C12.964 11.242 12.923 10.9231 12.8627 10.5865C12.8018 10.2472 12.7234 9.92658 12.6296 9.6335C12.5325 9.33057 12.4008 9.03145 12.2377 8.74475C12.0687 8.44721 11.87 8.18811 11.6471 7.97492C11.414 7.75188 11.1286 7.57255 10.7985 7.44171C10.4696 7.31164 10.1051 7.24572 9.71523 7.24572C9.56209 7.24572 9.41403 7.30853 9.12803 7.49474C8.92474 7.62712 8.72084 7.75857 8.51634 7.88908C8.31985 8.01429 8.05366 8.13159 7.72486 8.2378C7.40409 8.34159 7.07839 8.39424 6.7568 8.39424C6.43548 8.39424 6.10975 8.34159 5.78875 8.2378C5.46033 8.13168 5.19402 8.01441 4.99785 7.88919C4.77022 7.74373 4.56426 7.61099 4.38561 7.49459C4.09985 7.30841 3.95175 7.24557 3.79865 7.24557C3.40862 7.24557 3.04425 7.31161 2.71545 7.44186C2.38563 7.57244 2.1001 7.75176 1.86676 7.97503C1.64384 8.18834 1.44517 8.4473 1.27625 8.74475C1.11342 9.03142 0.981581 9.33045 0.884521 9.63361C0.790771 9.9267 0.712402 10.2472 0.651523 10.5865C0.591084 10.9227 0.550244 11.2416 0.529971 11.5346C0.510049 11.821 0.5 12.1192 0.5 12.4204C0.5 13.2034 0.748906 13.8372 1.23974 14.3047C1.72452 14.7661 2.36586 15 3.14597 15H10.3686C11.1485 15 11.7898 14.7661 12.2747 14.3048C12.7656 13.8376 13.0145 13.2035 13.0145 12.4202C13.0144 12.118 13.0043 11.8199 12.9842 11.5342ZM11.6686 13.6679C11.3483 13.9727 10.923 14.1209 10.3684 14.1209H3.146C2.59132 14.1209 2.16605 13.9727 1.84584 13.668C1.53172 13.369 1.37905 12.9608 1.37905 12.4204C1.37905 12.1393 1.38831 11.8618 1.40688 11.5954C1.42493 11.334 1.4619 11.0468 1.51675 10.7417C1.57086 10.4404 1.63973 10.1576 1.72168 9.90165C1.80031 9.65614 1.90754 9.4131 2.04051 9.17896C2.16743 8.95577 2.31344 8.76432 2.47458 8.61007C2.62531 8.46575 2.8153 8.34766 3.03913 8.2591C3.24614 8.17712 3.47881 8.13227 3.73138 8.1255C3.76214 8.14191 3.81699 8.17314 3.90578 8.23103C4.08649 8.3488 4.29476 8.48316 4.52503 8.6302C4.7846 8.7957 5.11897 8.94514 5.51849 9.0741C5.92691 9.20617 6.34348 9.27323 6.75695 9.27323C7.17045 9.27323 7.58711 9.20617 7.99533 9.07422C8.39517 8.94502 8.72945 8.7957 8.98937 8.62996C9.225 8.47938 9.42744 8.34892 9.60812 8.23103C9.69694 8.17323 9.75176 8.14188 9.78255 8.12553C10.0352 8.13227 10.2679 8.17712 10.475 8.25907C10.6987 8.34766 10.8887 8.46587 11.0394 8.61004C11.2006 8.7642 11.3466 8.95568 11.4735 9.17907C11.6066 9.4131 11.714 9.65629 11.7925 9.90153C11.8745 10.1579 11.9435 10.4405 11.9975 10.7416C12.0522 11.0473 12.0893 11.3346 12.1074 11.5955V11.5957C12.1261 11.8611 12.1354 12.1385 12.1356 12.4204C12.1354 12.9609 11.9828 13.369 11.6686 13.6679H11.6686Z" fill="black"/>
</svg>
