<svg width="14" height="16" viewBox="0 0 14 16" fill="none" xmlns="http://www.w3.org/2000/svg">
<path d="M8.29942 0.5H5.30067C2.41437 0.5 0.0528564 2.86152 0.0528564 5.74781V7.99688C0.0528564 10.021 1.23361 11.8765 3.05161 12.7387V15.2501C3.05161 15.475 3.33274 15.5875 3.48268 15.4188L5.65677 13.2447H8.29942C11.1857 13.2447 13.5472 10.8832 13.5472 7.99688V5.74781C13.5472 2.86152 11.1857 0.5 8.29942 0.5ZM10.2673 10.3397L9.49892 11.0893C8.69301 11.8765 6.61262 10.9769 4.77589 9.10267C2.93915 7.22845 2.13324 5.12932 2.90167 4.34215L3.65136 3.59246C3.93249 3.31133 4.40104 3.33007 4.71966 3.6112L5.80671 4.73573C6.20029 5.12932 6.03161 5.80404 5.52558 5.95398C5.16947 6.06643 4.92583 6.46002 5.03828 6.81612C5.2257 7.64077 6.27526 8.69034 7.06244 8.8965C7.41854 8.97147 7.81212 8.78405 7.94332 8.42795C8.112 7.92191 8.78672 7.77197 9.16156 8.16556L10.2486 9.29009C10.5485 9.55248 10.5485 10.021 10.2673 10.3397ZM7.47476 4.06102C7.39979 4.06102 7.32483 4.06102 7.24986 4.07976C7.11866 4.0985 6.98747 3.98605 6.96872 3.85485C6.94998 3.72366 7.06243 3.59246 7.19363 3.57372C7.28734 3.55498 7.38105 3.55498 7.47476 3.55498C8.84294 3.55498 9.96747 4.67951 9.96747 6.04769C9.96747 6.1414 9.96747 6.23511 9.94873 6.32882C9.92999 6.46002 9.79879 6.57247 9.6676 6.55373C9.5364 6.53499 9.42395 6.40379 9.44269 6.27259C9.44269 6.19763 9.46143 6.12266 9.46143 6.04769C9.48018 4.96064 8.58055 4.06102 7.47476 4.06102ZM8.97414 6.06643C8.97414 6.19763 8.86168 6.31008 8.73049 6.31008C8.59929 6.31008 8.48684 6.19763 8.48684 6.06643C8.48684 5.52291 8.03703 5.07309 7.49351 5.07309C7.36231 5.07309 7.24986 4.96064 7.24986 4.82945C7.24986 4.69825 7.36231 4.5858 7.49351 4.5858C8.29942 4.56706 8.97414 5.24177 8.97414 6.06643ZM10.8858 6.87234C10.8484 7.00354 10.7172 7.09725 10.5672 7.05977C10.436 7.02228 10.3611 6.89109 10.3985 6.75989C10.4548 6.53499 10.4735 6.31008 10.4735 6.06643C10.4735 4.41712 9.12408 3.06768 7.47476 3.06768H7.24986C7.11866 3.06768 6.98747 2.97397 6.98747 2.84277C6.98747 2.71158 7.08118 2.58038 7.21237 2.58038C7.30608 2.58038 7.39979 2.56164 7.47476 2.56164C9.40521 2.56164 10.9796 4.13599 10.9796 6.06643C10.9796 6.32882 10.9421 6.60995 10.8858 6.87234Z" fill="#16110C"/>
</svg>
